<mxfile host="app.diagrams.net" modified="2020-11-06T02:55:39.353Z" agent="5.0 (Windows NT 10.0; Win64; x64) AppleWebKit/537.36 (KHTML, like Gecko) Chrome/86.0.4240.111 Safari/537.36 Edg/86.0.622.61" etag="il53bjfRCIN2dyAhM6qu" version="13.8.9-1" type="github" pages="5">
  <diagram id="DAFPHoVdk3YulrqNeCpr" name="Page-1">
    <mxGraphModel dx="1422" dy="832" grid="1" gridSize="10" guides="1" tooltips="1" connect="1" arrows="1" fold="1" page="1" pageScale="1" pageWidth="827" pageHeight="1169" math="0" shadow="0">
      <root>
        <mxCell id="0" />
        <mxCell id="1" parent="0" />
        <mxCell id="Xu1sJVqpvTbx8bDdoMDZ-15" value="" style="rounded=0;whiteSpace=wrap;html=1;fillColor=none;dashed=1;" parent="1" vertex="1">
          <mxGeometry x="100" y="570" width="670" height="100" as="geometry" />
        </mxCell>
        <mxCell id="Xu1sJVqpvTbx8bDdoMDZ-17" value="" style="rounded=0;whiteSpace=wrap;html=1;dashed=1;strokeColor=#82b366;glass=0;shadow=0;fillColor=#99FF99;" parent="1" vertex="1">
          <mxGeometry x="95" y="700" width="670" height="100" as="geometry" />
        </mxCell>
        <mxCell id="Xu1sJVqpvTbx8bDdoMDZ-19" value="" style="rounded=0;whiteSpace=wrap;html=1;fillColor=none;dashed=1;" parent="1" vertex="1">
          <mxGeometry x="95" y="840" width="670" height="100" as="geometry" />
        </mxCell>
        <mxCell id="Xo3AoRbN2ey5bQLFYqum-1" value="" style="rounded=1;whiteSpace=wrap;html=1;" parent="1" vertex="1">
          <mxGeometry x="95" y="120" width="610" height="340" as="geometry" />
        </mxCell>
        <mxCell id="Xo3AoRbN2ey5bQLFYqum-2" value="&lt;font style=&quot;font-size: 14px&quot;&gt;Global&lt;/font&gt;" style="text;html=1;resizable=0;autosize=1;align=center;verticalAlign=middle;points=[];fillColor=none;strokeColor=none;rounded=0;" parent="1" vertex="1">
          <mxGeometry x="610" y="430" width="60" height="20" as="geometry" />
        </mxCell>
        <mxCell id="Xo3AoRbN2ey5bQLFYqum-7" value="自有K8S 集群" style="rounded=1;whiteSpace=wrap;html=1;fillColor=#60a917;strokeColor=#2D7600;fontColor=#ffffff;" parent="1" vertex="1">
          <mxGeometry x="140" y="590" width="120" height="60" as="geometry" />
        </mxCell>
        <mxCell id="Xo3AoRbN2ey5bQLFYqum-8" value="公有K8S集群" style="rounded=1;whiteSpace=wrap;html=1;fillColor=#6a00ff;strokeColor=#3700CC;fontColor=#ffffff;" parent="1" vertex="1">
          <mxGeometry x="360" y="590" width="120" height="60" as="geometry" />
        </mxCell>
        <mxCell id="Xo3AoRbN2ey5bQLFYqum-9" value="接入K8S集群" style="rounded=1;whiteSpace=wrap;html=1;fillColor=#1ba1e2;strokeColor=#006EAF;fontColor=#ffffff;" parent="1" vertex="1">
          <mxGeometry x="600" y="590" width="120" height="60" as="geometry" />
        </mxCell>
        <mxCell id="Xo3AoRbN2ey5bQLFYqum-10" value="Federation V2" style="rounded=0;whiteSpace=wrap;html=1;" parent="1" vertex="1">
          <mxGeometry x="360" y="390" width="120" height="60" as="geometry" />
        </mxCell>
        <mxCell id="Xo3AoRbN2ey5bQLFYqum-11" value="" style="endArrow=classic;html=1;exitX=0.5;exitY=1;exitDx=0;exitDy=0;entryX=0.5;entryY=0;entryDx=0;entryDy=0;" parent="1" source="Xo3AoRbN2ey5bQLFYqum-10" target="Xo3AoRbN2ey5bQLFYqum-7" edge="1">
          <mxGeometry width="50" height="50" relative="1" as="geometry">
            <mxPoint x="130" y="540" as="sourcePoint" />
            <mxPoint x="180" y="490" as="targetPoint" />
          </mxGeometry>
        </mxCell>
        <mxCell id="Xo3AoRbN2ey5bQLFYqum-12" value="" style="endArrow=classic;html=1;exitX=0.5;exitY=1;exitDx=0;exitDy=0;" parent="1" source="Xo3AoRbN2ey5bQLFYqum-10" target="Xo3AoRbN2ey5bQLFYqum-8" edge="1">
          <mxGeometry width="50" height="50" relative="1" as="geometry">
            <mxPoint x="430" y="460" as="sourcePoint" />
            <mxPoint x="270" y="580" as="targetPoint" />
          </mxGeometry>
        </mxCell>
        <mxCell id="Xo3AoRbN2ey5bQLFYqum-14" value="" style="endArrow=classic;html=1;exitX=0.5;exitY=1;exitDx=0;exitDy=0;entryX=0.5;entryY=0;entryDx=0;entryDy=0;" parent="1" source="Xo3AoRbN2ey5bQLFYqum-10" target="Xo3AoRbN2ey5bQLFYqum-9" edge="1">
          <mxGeometry width="50" height="50" relative="1" as="geometry">
            <mxPoint x="430" y="460" as="sourcePoint" />
            <mxPoint x="430" y="580" as="targetPoint" />
          </mxGeometry>
        </mxCell>
        <mxCell id="Xu1sJVqpvTbx8bDdoMDZ-1" value="Edge" style="rounded=1;whiteSpace=wrap;html=1;" parent="1" vertex="1">
          <mxGeometry x="118.75" y="870" width="50" height="40" as="geometry" />
        </mxCell>
        <mxCell id="Xu1sJVqpvTbx8bDdoMDZ-3" value="&lt;span&gt;Edge&lt;/span&gt;" style="rounded=1;whiteSpace=wrap;html=1;" parent="1" vertex="1">
          <mxGeometry x="233.75" y="870" width="50" height="40" as="geometry" />
        </mxCell>
        <mxCell id="Xu1sJVqpvTbx8bDdoMDZ-5" value="&lt;span&gt;Edge&lt;/span&gt;" style="rounded=1;whiteSpace=wrap;html=1;" parent="1" vertex="1">
          <mxGeometry x="348.75" y="870" width="50" height="40" as="geometry" />
        </mxCell>
        <mxCell id="Xu1sJVqpvTbx8bDdoMDZ-6" value="&lt;span&gt;Edge&lt;/span&gt;" style="rounded=1;whiteSpace=wrap;html=1;" parent="1" vertex="1">
          <mxGeometry x="463.75" y="870" width="50" height="40" as="geometry" />
        </mxCell>
        <mxCell id="Xu1sJVqpvTbx8bDdoMDZ-7" value="&lt;span&gt;Edge&lt;/span&gt;" style="rounded=1;whiteSpace=wrap;html=1;" parent="1" vertex="1">
          <mxGeometry x="586.25" y="870" width="50" height="40" as="geometry" />
        </mxCell>
        <mxCell id="Xu1sJVqpvTbx8bDdoMDZ-8" value="&lt;span&gt;Edge&lt;/span&gt;" style="rounded=1;whiteSpace=wrap;html=1;" parent="1" vertex="1">
          <mxGeometry x="701.25" y="870" width="50" height="40" as="geometry" />
        </mxCell>
        <mxCell id="Xu1sJVqpvTbx8bDdoMDZ-9" value="&lt;font style=&quot;font-size: 21px&quot;&gt;.....&lt;/font&gt;" style="text;html=1;resizable=0;autosize=1;align=center;verticalAlign=middle;points=[];fillColor=none;strokeColor=none;rounded=0;" parent="1" vertex="1">
          <mxGeometry x="178.75" y="880" width="40" height="20" as="geometry" />
        </mxCell>
        <mxCell id="Xu1sJVqpvTbx8bDdoMDZ-10" value="&lt;font style=&quot;font-size: 21px&quot;&gt;.....&lt;/font&gt;" style="text;html=1;resizable=0;autosize=1;align=center;verticalAlign=middle;points=[];fillColor=none;strokeColor=none;rounded=0;" parent="1" vertex="1">
          <mxGeometry x="408.75" y="880" width="40" height="20" as="geometry" />
        </mxCell>
        <mxCell id="Xu1sJVqpvTbx8bDdoMDZ-11" value="&lt;font style=&quot;font-size: 21px&quot;&gt;.....&lt;/font&gt;" style="text;html=1;resizable=0;autosize=1;align=center;verticalAlign=middle;points=[];fillColor=none;strokeColor=none;rounded=0;" parent="1" vertex="1">
          <mxGeometry x="648.75" y="880" width="40" height="20" as="geometry" />
        </mxCell>
        <mxCell id="Xu1sJVqpvTbx8bDdoMDZ-12" value="clutser1" style="rounded=1;whiteSpace=wrap;html=1;" parent="1" vertex="1">
          <mxGeometry x="140" y="720" width="120" height="60" as="geometry" />
        </mxCell>
        <mxCell id="Xu1sJVqpvTbx8bDdoMDZ-13" value="cluster2" style="rounded=1;whiteSpace=wrap;html=1;" parent="1" vertex="1">
          <mxGeometry x="360" y="720" width="120" height="60" as="geometry" />
        </mxCell>
        <mxCell id="Xu1sJVqpvTbx8bDdoMDZ-14" value="cluster3" style="rounded=1;whiteSpace=wrap;html=1;" parent="1" vertex="1">
          <mxGeometry x="600" y="720" width="120" height="60" as="geometry" />
        </mxCell>
        <mxCell id="Xu1sJVqpvTbx8bDdoMDZ-16" value="&lt;font style=&quot;font-size: 14px&quot;&gt;核心云&lt;/font&gt;" style="text;html=1;resizable=0;autosize=1;align=center;verticalAlign=middle;points=[];fillColor=none;strokeColor=none;rounded=0;dashed=1;" parent="1" vertex="1">
          <mxGeometry x="25" y="610" width="60" height="20" as="geometry" />
        </mxCell>
        <mxCell id="Xu1sJVqpvTbx8bDdoMDZ-18" value="&lt;font style=&quot;font-size: 14px&quot;&gt;边缘云&lt;/font&gt;" style="text;html=1;resizable=0;autosize=1;align=center;verticalAlign=middle;points=[];fillColor=none;strokeColor=none;rounded=0;dashed=1;" parent="1" vertex="1">
          <mxGeometry x="25" y="740" width="60" height="20" as="geometry" />
        </mxCell>
        <mxCell id="Xu1sJVqpvTbx8bDdoMDZ-20" value="&lt;font style=&quot;font-size: 14px&quot;&gt;边缘网关&lt;/font&gt;" style="text;html=1;resizable=0;autosize=1;align=center;verticalAlign=middle;points=[];fillColor=none;strokeColor=none;rounded=0;dashed=1;" parent="1" vertex="1">
          <mxGeometry x="20" y="880" width="70" height="20" as="geometry" />
        </mxCell>
        <mxCell id="Xu1sJVqpvTbx8bDdoMDZ-21" value="" style="endArrow=classic;html=1;exitX=0.157;exitY=0.8;exitDx=0;exitDy=0;exitPerimeter=0;entryX=0.5;entryY=0;entryDx=0;entryDy=0;" parent="1" source="Xu1sJVqpvTbx8bDdoMDZ-17" target="Xu1sJVqpvTbx8bDdoMDZ-1" edge="1">
          <mxGeometry width="50" height="50" relative="1" as="geometry">
            <mxPoint y="870" as="sourcePoint" />
            <mxPoint x="50" y="820" as="targetPoint" />
          </mxGeometry>
        </mxCell>
        <mxCell id="Xu1sJVqpvTbx8bDdoMDZ-22" value="" style="endArrow=classic;html=1;entryX=0.5;entryY=0;entryDx=0;entryDy=0;" parent="1" target="Xu1sJVqpvTbx8bDdoMDZ-3" edge="1">
          <mxGeometry width="50" height="50" relative="1" as="geometry">
            <mxPoint x="200" y="780" as="sourcePoint" />
            <mxPoint x="153.75" y="880" as="targetPoint" />
          </mxGeometry>
        </mxCell>
        <mxCell id="Xu1sJVqpvTbx8bDdoMDZ-23" value="" style="endArrow=classic;html=1;exitX=0.157;exitY=0.8;exitDx=0;exitDy=0;exitPerimeter=0;entryX=0.5;entryY=0;entryDx=0;entryDy=0;" parent="1" edge="1">
          <mxGeometry width="50" height="50" relative="1" as="geometry">
            <mxPoint x="421.44000000000005" y="780" as="sourcePoint" />
            <mxPoint x="365" y="870" as="targetPoint" />
          </mxGeometry>
        </mxCell>
        <mxCell id="Xu1sJVqpvTbx8bDdoMDZ-24" value="" style="endArrow=classic;html=1;entryX=0.5;entryY=0;entryDx=0;entryDy=0;" parent="1" edge="1">
          <mxGeometry width="50" height="50" relative="1" as="geometry">
            <mxPoint x="421.25" y="780" as="sourcePoint" />
            <mxPoint x="480" y="870" as="targetPoint" />
          </mxGeometry>
        </mxCell>
        <mxCell id="Xu1sJVqpvTbx8bDdoMDZ-25" value="" style="endArrow=classic;html=1;exitX=0.157;exitY=0.8;exitDx=0;exitDy=0;exitPerimeter=0;entryX=0.5;entryY=0;entryDx=0;entryDy=0;" parent="1" edge="1">
          <mxGeometry width="50" height="50" relative="1" as="geometry">
            <mxPoint x="666.44" y="780" as="sourcePoint" />
            <mxPoint x="610" y="870" as="targetPoint" />
          </mxGeometry>
        </mxCell>
        <mxCell id="Xu1sJVqpvTbx8bDdoMDZ-26" value="" style="endArrow=classic;html=1;entryX=0.5;entryY=0;entryDx=0;entryDy=0;" parent="1" edge="1">
          <mxGeometry width="50" height="50" relative="1" as="geometry">
            <mxPoint x="666.25" y="780" as="sourcePoint" />
            <mxPoint x="725" y="870" as="targetPoint" />
          </mxGeometry>
        </mxCell>
        <mxCell id="Xu1sJVqpvTbx8bDdoMDZ-27" value="" style="endArrow=classic;html=1;entryX=0.75;entryY=0;entryDx=0;entryDy=0;" parent="1" target="Xu1sJVqpvTbx8bDdoMDZ-12" edge="1">
          <mxGeometry width="50" height="50" relative="1" as="geometry">
            <mxPoint x="420" y="450" as="sourcePoint" />
            <mxPoint x="210" y="600" as="targetPoint" />
          </mxGeometry>
        </mxCell>
        <mxCell id="Xu1sJVqpvTbx8bDdoMDZ-28" value="" style="endArrow=classic;html=1;entryX=0.5;entryY=0;entryDx=0;entryDy=0;exitX=0.5;exitY=1;exitDx=0;exitDy=0;" parent="1" source="Xo3AoRbN2ey5bQLFYqum-10" target="Xu1sJVqpvTbx8bDdoMDZ-14" edge="1">
          <mxGeometry width="50" height="50" relative="1" as="geometry">
            <mxPoint x="430" y="460" as="sourcePoint" />
            <mxPoint x="240" y="730" as="targetPoint" />
          </mxGeometry>
        </mxCell>
        <mxCell id="siO-IzYYd0u0qlm4Qa5o-2" value="节点接入" style="rounded=1;whiteSpace=wrap;html=1;fillColor=#d5e8d4;strokeColor=#82b366;" parent="1" vertex="1">
          <mxGeometry x="230" y="310" width="100" height="50" as="geometry" />
        </mxCell>
        <mxCell id="siO-IzYYd0u0qlm4Qa5o-3" value="集群管理" style="rounded=1;whiteSpace=wrap;html=1;fillColor=#d5e8d4;strokeColor=#82b366;" parent="1" vertex="1">
          <mxGeometry x="120" y="310" width="100" height="50" as="geometry" />
        </mxCell>
        <mxCell id="siO-IzYYd0u0qlm4Qa5o-4" value="应用管理" style="rounded=1;whiteSpace=wrap;html=1;fillColor=#d5e8d4;strokeColor=#82b366;" parent="1" vertex="1">
          <mxGeometry x="348.75" y="310" width="100" height="50" as="geometry" />
        </mxCell>
        <mxCell id="siO-IzYYd0u0qlm4Qa5o-5" value="多集群调度" style="rounded=1;whiteSpace=wrap;html=1;fillColor=#d5e8d4;strokeColor=#82b366;" parent="1" vertex="1">
          <mxGeometry x="471.25" y="310" width="100" height="50" as="geometry" />
        </mxCell>
        <mxCell id="siO-IzYYd0u0qlm4Qa5o-6" value="计量计费" style="rounded=1;whiteSpace=wrap;html=1;fillColor=#fff2cc;strokeColor=#d6b656;" parent="1" vertex="1">
          <mxGeometry x="120" y="140" width="100" height="50" as="geometry" />
        </mxCell>
        <mxCell id="siO-IzYYd0u0qlm4Qa5o-7" value="跨集群服务发现" style="rounded=1;whiteSpace=wrap;html=1;fillColor=#fff2cc;strokeColor=#d6b656;" parent="1" vertex="1">
          <mxGeometry x="350" y="140" width="100" height="50" as="geometry" />
        </mxCell>
        <mxCell id="siO-IzYYd0u0qlm4Qa5o-8" value="服务质量监控" style="rounded=1;whiteSpace=wrap;html=1;fillColor=#f8cecc;strokeColor=#b85450;" parent="1" vertex="1">
          <mxGeometry x="350" y="225" width="100" height="50" as="geometry" />
        </mxCell>
        <mxCell id="siO-IzYYd0u0qlm4Qa5o-9" value="边缘服务发现" style="rounded=1;whiteSpace=wrap;html=1;fillColor=#fff2cc;strokeColor=#d6b656;" parent="1" vertex="1">
          <mxGeometry x="230" y="140" width="100" height="50" as="geometry" />
        </mxCell>
        <mxCell id="siO-IzYYd0u0qlm4Qa5o-10" value="副本扩缩容" style="rounded=1;whiteSpace=wrap;html=1;fillColor=#f8cecc;strokeColor=#b85450;" parent="1" vertex="1">
          <mxGeometry x="233.75" y="225" width="100" height="50" as="geometry" />
        </mxCell>
        <mxCell id="siO-IzYYd0u0qlm4Qa5o-11" value="" style="rounded=1;whiteSpace=wrap;html=1;fillColor=#f8cecc;strokeColor=#b85450;" parent="1" vertex="1">
          <mxGeometry x="610" y="250" width="30" height="30" as="geometry" />
        </mxCell>
        <mxCell id="siO-IzYYd0u0qlm4Qa5o-12" value="未实现" style="text;html=1;resizable=0;autosize=1;align=center;verticalAlign=middle;points=[];fillColor=none;strokeColor=none;rounded=0;" parent="1" vertex="1">
          <mxGeometry x="650" y="255" width="50" height="20" as="geometry" />
        </mxCell>
        <mxCell id="siO-IzYYd0u0qlm4Qa5o-13" value="" style="rounded=1;whiteSpace=wrap;html=1;fillColor=#d5e8d4;strokeColor=#82b366;" parent="1" vertex="1">
          <mxGeometry x="610" y="290" width="30" height="30" as="geometry" />
        </mxCell>
        <mxCell id="siO-IzYYd0u0qlm4Qa5o-14" value="已实现" style="text;html=1;resizable=0;autosize=1;align=center;verticalAlign=middle;points=[];fillColor=none;strokeColor=none;rounded=0;" parent="1" vertex="1">
          <mxGeometry x="650" y="295" width="50" height="20" as="geometry" />
        </mxCell>
        <mxCell id="siO-IzYYd0u0qlm4Qa5o-15" value="" style="rounded=1;whiteSpace=wrap;html=1;fillColor=#fff2cc;strokeColor=#d6b656;" parent="1" vertex="1">
          <mxGeometry x="610" y="330" width="30" height="30" as="geometry" />
        </mxCell>
        <mxCell id="siO-IzYYd0u0qlm4Qa5o-16" value="开发中" style="text;html=1;resizable=0;autosize=1;align=center;verticalAlign=middle;points=[];fillColor=none;strokeColor=none;rounded=0;" parent="1" vertex="1">
          <mxGeometry x="650" y="335" width="50" height="20" as="geometry" />
        </mxCell>
        <mxCell id="siO-IzYYd0u0qlm4Qa5o-17" value="安全隔离" style="rounded=1;whiteSpace=wrap;html=1;fillColor=#f8cecc;strokeColor=#b85450;" parent="1" vertex="1">
          <mxGeometry x="118.75" y="225" width="100" height="50" as="geometry" />
        </mxCell>
        <mxCell id="siO-IzYYd0u0qlm4Qa5o-19" value="日志中心" style="rounded=1;whiteSpace=wrap;html=1;fillColor=#f8cecc;strokeColor=#b85450;" parent="1" vertex="1">
          <mxGeometry x="471.25" y="225" width="100" height="50" as="geometry" />
        </mxCell>
        <mxCell id="siO-IzYYd0u0qlm4Qa5o-20" value="弹性发布" style="rounded=1;whiteSpace=wrap;html=1;fillColor=#f8cecc;strokeColor=#b85450;" parent="1" vertex="1">
          <mxGeometry x="471.25" y="140" width="100" height="50" as="geometry" />
        </mxCell>
      </root>
    </mxGraphModel>
  </diagram>
  <diagram id="lI5RoNFp88MgGGNgni5x" name="Page-2">
    <mxGraphModel dx="-232" dy="-337" grid="1" gridSize="10" guides="1" tooltips="1" connect="1" arrows="1" fold="1" page="1" pageScale="1" pageWidth="827" pageHeight="1169" math="0" shadow="0">
      <root>
        <mxCell id="msdkebxMWvLPw_NlSIgo-0" />
        <mxCell id="msdkebxMWvLPw_NlSIgo-1" parent="msdkebxMWvLPw_NlSIgo-0" />
        <mxCell id="BHLONQJ8GlK8dCWR9Fvm-0" value="" style="rounded=1;whiteSpace=wrap;html=1;" parent="msdkebxMWvLPw_NlSIgo-1" vertex="1">
          <mxGeometry x="1953" y="1230" width="380" height="210" as="geometry" />
        </mxCell>
        <mxCell id="BHLONQJ8GlK8dCWR9Fvm-2" value="集群管理控制器" style="shape=process;whiteSpace=wrap;html=1;backgroundOutline=1;" parent="msdkebxMWvLPw_NlSIgo-1" vertex="1">
          <mxGeometry x="1983" y="1240" width="120" height="60" as="geometry" />
        </mxCell>
        <mxCell id="BHLONQJ8GlK8dCWR9Fvm-3" value="Actor" style="shape=umlActor;verticalLabelPosition=bottom;verticalAlign=top;html=1;outlineConnect=0;" parent="msdkebxMWvLPw_NlSIgo-1" vertex="1">
          <mxGeometry x="1803" y="1370" width="30" height="60" as="geometry" />
        </mxCell>
        <mxCell id="BHLONQJ8GlK8dCWR9Fvm-5" value="" style="endArrow=classic;html=1;entryX=0;entryY=0.5;entryDx=0;entryDy=0;" parent="msdkebxMWvLPw_NlSIgo-1" target="BHLONQJ8GlK8dCWR9Fvm-6" edge="1">
          <mxGeometry width="50" height="50" relative="1" as="geometry">
            <mxPoint x="1843" y="1405" as="sourcePoint" />
            <mxPoint x="2023" y="1430" as="targetPoint" />
          </mxGeometry>
        </mxCell>
        <mxCell id="BHLONQJ8GlK8dCWR9Fvm-6" value="Cluster CRD" style="rounded=1;whiteSpace=wrap;html=1;" parent="msdkebxMWvLPw_NlSIgo-1" vertex="1">
          <mxGeometry x="1983" y="1380" width="80" height="50" as="geometry" />
        </mxCell>
        <mxCell id="BHLONQJ8GlK8dCWR9Fvm-7" value="1. watch" style="endArrow=classic;html=1;exitX=0.5;exitY=1;exitDx=0;exitDy=0;entryX=0.75;entryY=0;entryDx=0;entryDy=0;" parent="msdkebxMWvLPw_NlSIgo-1" source="BHLONQJ8GlK8dCWR9Fvm-2" target="BHLONQJ8GlK8dCWR9Fvm-6" edge="1">
          <mxGeometry y="-20" width="50" height="50" relative="1" as="geometry">
            <mxPoint x="1913" y="1540" as="sourcePoint" />
            <mxPoint x="1963" y="1490" as="targetPoint" />
            <mxPoint as="offset" />
          </mxGeometry>
        </mxCell>
        <mxCell id="BHLONQJ8GlK8dCWR9Fvm-8" value="2. 提交" style="text;html=1;resizable=0;autosize=1;align=center;verticalAlign=middle;points=[];fillColor=none;strokeColor=none;rounded=0;" parent="msdkebxMWvLPw_NlSIgo-1" vertex="1">
          <mxGeometry x="1858" y="1380" width="50" height="20" as="geometry" />
        </mxCell>
        <mxCell id="BHLONQJ8GlK8dCWR9Fvm-9" value="Global CRD" style="rounded=1;whiteSpace=wrap;html=1;" parent="msdkebxMWvLPw_NlSIgo-1" vertex="1">
          <mxGeometry x="2213" y="1245" width="80" height="50" as="geometry" />
        </mxCell>
        <mxCell id="BHLONQJ8GlK8dCWR9Fvm-10" value="" style="endArrow=classic;html=1;entryX=0;entryY=0.5;entryDx=0;entryDy=0;exitX=1;exitY=0.5;exitDx=0;exitDy=0;" parent="msdkebxMWvLPw_NlSIgo-1" source="BHLONQJ8GlK8dCWR9Fvm-2" target="BHLONQJ8GlK8dCWR9Fvm-9" edge="1">
          <mxGeometry width="50" height="50" relative="1" as="geometry">
            <mxPoint x="1893" y="1500" as="sourcePoint" />
            <mxPoint x="1943" y="1450" as="targetPoint" />
          </mxGeometry>
        </mxCell>
        <mxCell id="BHLONQJ8GlK8dCWR9Fvm-11" value="3. 查询" style="edgeLabel;html=1;align=center;verticalAlign=middle;resizable=0;points=[];" parent="BHLONQJ8GlK8dCWR9Fvm-10" vertex="1" connectable="0">
          <mxGeometry x="-0.0138" relative="1" as="geometry">
            <mxPoint x="-4.83" y="-10" as="offset" />
          </mxGeometry>
        </mxCell>
        <mxCell id="BHLONQJ8GlK8dCWR9Fvm-17" value="" style="edgeStyle=orthogonalEdgeStyle;rounded=0;orthogonalLoop=1;jettySize=auto;html=1;entryX=0.5;entryY=0;entryDx=0;entryDy=0;" parent="msdkebxMWvLPw_NlSIgo-1" source="BHLONQJ8GlK8dCWR9Fvm-12" target="BHLONQJ8GlK8dCWR9Fvm-15" edge="1">
          <mxGeometry relative="1" as="geometry">
            <mxPoint x="2223" y="1510" as="targetPoint" />
            <Array as="points">
              <mxPoint x="2223" y="1470" />
              <mxPoint x="2063" y="1470" />
            </Array>
          </mxGeometry>
        </mxCell>
        <mxCell id="BHLONQJ8GlK8dCWR9Fvm-18" value="5. 联邦纳管" style="edgeLabel;html=1;align=center;verticalAlign=middle;resizable=0;points=[];" parent="BHLONQJ8GlK8dCWR9Fvm-17" vertex="1" connectable="0">
          <mxGeometry x="-0.2473" relative="1" as="geometry">
            <mxPoint x="0.48" y="-10.030000000000001" as="offset" />
          </mxGeometry>
        </mxCell>
        <mxCell id="BHLONQJ8GlK8dCWR9Fvm-12" value="Federation 控制器" style="shape=process;whiteSpace=wrap;html=1;backgroundOutline=1;" parent="msdkebxMWvLPw_NlSIgo-1" vertex="1">
          <mxGeometry x="2153" y="1370" width="140" height="60" as="geometry" />
        </mxCell>
        <mxCell id="BHLONQJ8GlK8dCWR9Fvm-13" value="&lt;span style=&quot;color: rgba(0 , 0 , 0 , 0) ; font-family: monospace ; font-size: 0px ; background-color: rgb(248 , 249 , 250)&quot;&gt;jiis&lt;/span&gt;" style="endArrow=classic;html=1;exitX=1;exitY=1;exitDx=0;exitDy=0;entryX=0.5;entryY=0;entryDx=0;entryDy=0;" parent="msdkebxMWvLPw_NlSIgo-1" source="BHLONQJ8GlK8dCWR9Fvm-2" target="BHLONQJ8GlK8dCWR9Fvm-12" edge="1">
          <mxGeometry x="-0.2124" y="-14" width="50" height="50" relative="1" as="geometry">
            <mxPoint x="2053" y="1310" as="sourcePoint" />
            <mxPoint x="2053" y="1390" as="targetPoint" />
            <mxPoint as="offset" />
          </mxGeometry>
        </mxCell>
        <mxCell id="BHLONQJ8GlK8dCWR9Fvm-14" value="4. JoinCluster" style="edgeLabel;html=1;align=center;verticalAlign=middle;resizable=0;points=[];" parent="BHLONQJ8GlK8dCWR9Fvm-13" vertex="1" connectable="0">
          <mxGeometry x="-0.2708" y="3" relative="1" as="geometry">
            <mxPoint x="-25" y="12.22" as="offset" />
          </mxGeometry>
        </mxCell>
        <mxCell id="BHLONQJ8GlK8dCWR9Fvm-15" value="Cluster" style="rounded=1;whiteSpace=wrap;html=1;" parent="msdkebxMWvLPw_NlSIgo-1" vertex="1">
          <mxGeometry x="1953" y="1500" width="220" height="80" as="geometry" />
        </mxCell>
      </root>
    </mxGraphModel>
  </diagram>
  <diagram id="IDZiNuhCM3JMp1bRkz-M" name="Page-3">
    <mxGraphModel dx="1422" dy="2001" grid="1" gridSize="10" guides="1" tooltips="1" connect="1" arrows="1" fold="1" page="1" pageScale="1" pageWidth="827" pageHeight="1169" math="0" shadow="0">
      <root>
        <mxCell id="CIlAjLKx_zQ3_18mQWrC-0" />
        <mxCell id="CIlAjLKx_zQ3_18mQWrC-1" parent="CIlAjLKx_zQ3_18mQWrC-0" />
        <mxCell id="CIlAjLKx_zQ3_18mQWrC-2" value="云边端系统" style="swimlane;html=1;childLayout=stackLayout;resizeParent=1;resizeParentMax=0;horizontal=1;startSize=40;horizontalStack=0;" parent="CIlAjLKx_zQ3_18mQWrC-1" vertex="1">
          <mxGeometry x="140" y="-460" width="536.89" height="372.8" as="geometry" />
        </mxCell>
        <mxCell id="CIlAjLKx_zQ3_18mQWrC-3" value="核心云" style="swimlane;html=1;startSize=60;horizontal=0;swimlaneFillColor=none;" parent="CIlAjLKx_zQ3_18mQWrC-2" vertex="1">
          <mxGeometry y="40" width="536.89" height="92.8" as="geometry" />
        </mxCell>
        <mxCell id="CIlAjLKx_zQ3_18mQWrC-4" value="kubernetes&amp;nbsp;&amp;nbsp;" style="rounded=0;whiteSpace=wrap;html=1;glass=0;gradientColor=none;align=right;strokeColor=none;" parent="CIlAjLKx_zQ3_18mQWrC-3" vertex="1">
          <mxGeometry x="200" y="23.399999999999977" width="130" height="60" as="geometry" />
        </mxCell>
        <mxCell id="CIlAjLKx_zQ3_18mQWrC-5" value="" style="aspect=fixed;html=1;points=[];align=center;image;fontSize=12;image=img/lib/mscae/Kubernetes.svg;rounded=0;glass=0;gradientColor=none;" parent="CIlAjLKx_zQ3_18mQWrC-3" vertex="1">
          <mxGeometry x="207.99999999999997" y="31.399999999999977" width="45.83" height="44" as="geometry" />
        </mxCell>
        <mxCell id="CIlAjLKx_zQ3_18mQWrC-6" value="边缘云" style="swimlane;html=1;startSize=60;horizontal=0;fillColor=#d5e8d4;strokeColor=#82b366;rounded=0;glass=0;swimlaneFillColor=#ffffff;" parent="CIlAjLKx_zQ3_18mQWrC-2" vertex="1">
          <mxGeometry y="132.8" width="536.89" height="120" as="geometry" />
        </mxCell>
        <mxCell id="CIlAjLKx_zQ3_18mQWrC-7" value="kubernetes&amp;nbsp;&amp;nbsp;" style="rounded=0;whiteSpace=wrap;html=1;glass=0;gradientColor=none;align=right;strokeColor=none;" parent="CIlAjLKx_zQ3_18mQWrC-6" vertex="1">
          <mxGeometry x="70" y="30" width="130" height="60" as="geometry" />
        </mxCell>
        <mxCell id="CIlAjLKx_zQ3_18mQWrC-8" value="" style="aspect=fixed;html=1;points=[];align=center;image;fontSize=12;image=img/lib/mscae/Kubernetes.svg;rounded=0;glass=0;gradientColor=none;" parent="CIlAjLKx_zQ3_18mQWrC-6" vertex="1">
          <mxGeometry x="80" y="36" width="50" height="48" as="geometry" />
        </mxCell>
        <mxCell id="CIlAjLKx_zQ3_18mQWrC-9" value="" style="rounded=0;whiteSpace=wrap;html=1;glass=0;gradientColor=none;align=right;strokeColor=none;" parent="CIlAjLKx_zQ3_18mQWrC-6" vertex="1">
          <mxGeometry x="238" y="30" width="160" height="60" as="geometry" />
        </mxCell>
        <mxCell id="CIlAjLKx_zQ3_18mQWrC-10" value="" style="shape=image;imageAspect=0;aspect=fixed;verticalLabelPosition=bottom;verticalAlign=top;rounded=0;glass=0;gradientColor=none;image=https://oscimg.oschina.net/oscnet/5ef7c47f-a909-49a6-a08b-4275f2c5dd58.png;" parent="CIlAjLKx_zQ3_18mQWrC-6" vertex="1">
          <mxGeometry x="258" y="38.88" width="118.72" height="46.12" as="geometry" />
        </mxCell>
        <mxCell id="CIlAjLKx_zQ3_18mQWrC-11" value="边缘网关" style="swimlane;html=1;startSize=60;horizontal=0;" parent="CIlAjLKx_zQ3_18mQWrC-2" vertex="1">
          <mxGeometry y="252.8" width="536.89" height="120" as="geometry" />
        </mxCell>
        <mxCell id="CIlAjLKx_zQ3_18mQWrC-12" value="Kubeedge&amp;nbsp; &amp;nbsp;&amp;nbsp;" style="rounded=0;whiteSpace=wrap;html=1;glass=0;gradientColor=none;align=right;strokeColor=none;" parent="CIlAjLKx_zQ3_18mQWrC-11" vertex="1">
          <mxGeometry x="70" y="30" width="150" height="60" as="geometry" />
        </mxCell>
        <mxCell id="CIlAjLKx_zQ3_18mQWrC-13" value="" style="shape=image;imageAspect=0;aspect=fixed;verticalLabelPosition=bottom;verticalAlign=top;rounded=0;glass=0;gradientColor=none;image=data:image/png,iVBORw0KGgoAAAANSUhEUgAAAPoAAAD6CAYAAACI7Fo9AABP50lEQVR4nOy9Z5hc13nn+Tv3Vo6dc0BOBEACRCSYJIuywtjUWJJlj8PM2tY++2F35xmPSNAzz86HHc+apDzeD7uzuzO2ZhxHtmVlK1CiRFEEiEgSAJEz0AGNzl3Vleves885davRDYBEA52qCvX3UwKNblTduvf8zxvO+/5fgyqqqKLiUSV6FVU8BKgSvYoqHgJUiV5FFQ8BqkSvooqHAK6lvoAqFhYde/cJW5gYUghAgEQgkEjnNwyJELL35R1yiS+1igWEWOoLqGLh0PXCW0IK4bENMyqkqAUiID2OJ5cHkQIxgRBjAmI9L++wl/qaq1gYVIleQejau09IaQphmB4pZZ0UchWSzUA30ALUA37ABLLAJDAE9AMnQVxEcA3bjkvbtvr+eE+V+BWCKtErBO0vHhSGsN0gmkBsk7AL2AZsAcLT8jHTn7l0XnngGvA+cAQ4gC1PSeR435efqJK9AlAlepmj+6WDhmULN0Iqa/0M8BSwHVgFBJ08zGyes+UQfgQ4DRwCvoeQZ5Xll24z3/fvq3F8uaJK9DJEx4sHhGHgkogaKVkB7AR+AdjhuOfuOX6EInQauAwcA36C4AiSPiPvmrj+H7dVrXyZoUr0MkPnC/uFFEZACLFewpPAp4BHgRrAM88fVyT8TeAd4B+R4qcIBqRBru+PdlYtfJmgSvQyQPtLB4SQGEgRQejE2uPA54BNjgX3LfAlKAueAm4ArwFvIDiFtK+DSCOk7H35iSrpSxjVc/QShyI5ggiwzHHRP0Yh0da6iM/PcOL9lcD/AHwcyRtgvI7gOMgrQG6RrqWKB0DVopcg2l56WwhpGAb4pJBdSPGLwNNOBr3JseBLWdVoAQnHwh8AviUR7wFDhpAZAfL6y7uqFr6EUCV6CaH5D04Il530i4I7/hjwUeeIbDMQKtGSZUX6PuAs8DbwM4Q8j2C49492V618iaBK9BLAun95WCS90rSEiIC9W8Cngd2gM+qlSvDboQg/ClxA8DrIv8MWPbaQyf5XdltLfXEPO6pEX0Ks+DfviLxtuaW0mySsAT4CfBJYDkSdCrZyg7Liw07hzc+B/VJySUoxTt6d7/8/t1Zd+iVAlehLhLYXj5qmsFS8vVIiVQz+CceC15SJBb8XssA4cBz4voS3QJxLT04mRv7TL1TJvsioEn0R0b73oJBIl0DUiIIFf95Jsi0D6uah0KUUkZpWbfd14JCE67ZhTxhSyL6Xd1dJvwioEn0R0LX3kGlLwgjZDTzhvB53LLjnIXkONjDhVNsdchJ3RxHymjSNTN9/qBbfLCQehgW2ZOh+6YBhI9xI0SSRn3Gy6I8p416h1ns2UIROAteBwwj5VYRxBCnjZtaVv/Yn26qEXwBUib4A6HzhbbNQpkqHLFjuZ51Xx0Nkwe8F2zmLP6EJDz9DimM6kZe3Ur1/Uq20m09UF9w8ouNLBwSmsuCyE8ROBP/EcdEVwQNLfX0lCtvpiy+49FL8I8j9CDsupG31vPpklfDzgCrR5wHte98WCBEUkmYQm5069C0OwUPV+zwrWEDMIfz3dD09XBLSHkSS7fly1cLPBdUF+IBoe+mAMKQwBTRLITcgxZNOL/h6oKHaR/DAkNMy9e9qlx4OS8T7YCeljd3/5Wqm/n5RJfoDoH3vAQOBX0ixAfiMc0S2saDJVhFn4KUAOa3a7gjwDYl8G8l1YZDqrR7L3ReqRJ8lVv7rwyLtwg0yLJAbnCOyPU6pavQ+lFyquD9Ip/jmqj6Og7cQ8gBSXJfIeF+1vHZWqC7MWaBz72HDsKXPMtgG8iMOwR91esHLsUy1XJEDeh2X/i2J/I6QotdG5vtfrVr4D0OV6B+A1hfeFYbIm4aQEQldIJ903PRHplWxVe/f4qNo4fuBn6oYXipLL0WflHay/8tVC383VBfqNLS/cEhg2GoleQ3EymmtojudIpdo9Z6VFHJOPf0lpy/+TQmHbCGHDbCq5bW3UF2009D+4iGPELLJSax9wSlyaXaEHqr3qnRhOZl6Rfiv6jgeLhru3PD1P3yqKmRZXbzQ+dJBQ4BPStEqkVuc+Fu91jnySdUsevkg7wykOKesO8h9IM5gikEjK/LX//jhlat+aIne8cLbwjCEgRD1ttR66E87Fly57N4qwcsaxeKb046Q5XcNyziNFMnrf7z9obTwDx3RO148aCBwI2UjiE0IXeTyKaeTzF8tdKkYFCfQTDjx+36kOADyJIJJIa1cz6t7HhoL/1AQvWPv28IGwxAighQbnbPvp50MessiyCVXsbQoylVfd5po3gB+IoXolwbp/v9jZ8Vb+Yonetfeg0IKGZLQhlTWW/xzYK2j5PKwtoo+rFAWPOPE8T8Evo3glJTGgJQi0//q9oq18BVLdF2miqgTkmUIParoWafRpNOJwat4eCEdl74XOOicx5+UUl4UBmn140obSFFx8WjjH5wVLjvmFdgdwC8itKLqY06RS7UXvAqcNVDj1EWs1AMpYJ8Q4q9AnkCIYacop2JQEYu++w+OiLzUWXI/0loBbBWFGPwXFPer5+BV3AO2o3pzWhFeJ+8KIhj9EjvVVwHltWW9+NtePCoMYXkE1EnkE457vs2JwSPVOvQq7hPFjjkVw59xdO2+I6W4hBCTfa/sKFsrX5ZEb35xv3AJwwSjRuj+b/kpCkMPljtFLmX5vaooKdjTWmR/JhGvg7ggkcn+V3aWXT19WRFC16IL3ELIFsdqf4TC6ODVzkyyapFLFfONNDAIvF8cSKFcfGFaE8Kw5PU/fLos3PqyIXrbi2+7DCFCFJpNftMheWcZTzSporyQcyz8OeCvEPJNYEC6zcm+f1/6pbUlTfSOFw4ICW5hiHoKAw92Ot1kjztZ04o7Naii5JFxCm+O62M5oRVsrxnSGL3+yo6SLbwpSaJ3vHTAxMYLogOhZ5E9AWx1WkWrdehVlAKKo6OvOwMpvo3kHZCjSJnpLTExy5IieseXDgth2qYUtGDzBEKfb/6iM/S/6p5XUYooCmEcL7THyh8hOQgi0fvqrpJJ2pUM0Zf/20Min6MW5BYp+CWnFn1VVS65ijJB3umYU4R/DfiBlJzpe3VXScyILxkX2LZlAMEvS8EfAP/cqWYLV0leRZnA5VRfPgX8r8C/BFa27T1QEp7okpOo46VDQkipCP1RiSb5JqddtIoqyhXS0aX/qoQ/l3C6/5Vd6aW8oCUlete/3S/svKsN+CzI33UknErGy6iiijki5vTC/99SN86IVN8rSzM1dkmPp2zLDDjyyb/rSDdVSV5FJSHiuPITjmrtyaVqllkyYnXsPeRDam30X3Uq2zxLdS1VVLGAUGHoUwL+mUB2drx0cEm86CW0oLIR+BVgVzUmr6KCIRwl4V/S9SByabzoJSF6x94D6stuB54DapfiGqqoYhFhOJN1P4mUS7Lel8iii0ghAafLWqtlrFU8DAhoGXEhdra9eGTRj9wWnegdew8oV6Yb2FCVdKriIYNy4R8TgkD73iOLGqsvOtHtvFs4ybfWpT7eq6KKRYZHGTiB3SmwF5V7i/phLV86JKRheR0N9ZrF/OwqqigBFI1cN8hFNXKLGh+bpq2+XAOIZdXjtKWBIQQuAW4DXM5/m/olCru+s/xsCZaU+s+8hJyUhT9tkFJSUq1Z5YV2kF2yELbmF+tDFzkRJgxH7mlt1W1feAgBHkMQ8Rg0+EzqfQa1QTeNUQ/1ITd1QTdRv0lYvbwuTX7TFFi2JJ2TJLM2qZzFeMpiZDLHaCLHcCzLRCLPcNJiOG0xkbVJ5m1klfmzRQTYKArx+uXF+tBFJbqQwkDINueooYoFgrLOEbegI2Cyqt5Le6OP5c0BVjX5aY548XpNTEPgMg1Mh9wuo7DvCrU7ULDkivC2Xfgzb9lYliSXtxhP5LkwmOLSQJIbwykuDWe4NplnJGOTs6uMvwdMR2K6qWKJDjLoyD/VL+7nVj4UT0Mug86wS5N7eaOP1a1BNnaGCPld+DwmXpeBx2VoS//hEPr9iuQvoHAipGhcH5W0NwbYvbqGdNbiwkCCM30Jrg6muDyS5epETlt7u+ri3w2uQo5KNjX/uzfFzf/9mUW5RYt9hl3vJOKqx2rzBEVFRchVERd7ukOs7wqxqTtCe50Xj9vUxDbmMUhSb+U2BW7TJOwrkL+pxsf2lTWMTuY42zfJyWtx9l+KcWYsx2TVrb8dZuHESbSZlulxpKkWHItKdCloFgW3pVokM0co91zxbGXUw5b2AI92h9mxJkpdyIPfY+Iy785u6fyPlJKcJcnkbbJ5STZvFyywLMT2yrVXL7dp4PcYeEzhuPXc4RF4XAKPy4Xfa9IQ8fDosggbusKcvBbjWF+S00MZxrI2+apbX4QydN0i76ppf+ngYN/Luxb8xiwa4Vb9/iEzjexyCmWqRH9AKJKF3QaPt/h5elWYx1ZEWdYUIBp0a0t7O/KW1K9svpBQuzGeZXAsTTKZI56ymEhbxDIWk1mbrFWIzdXbKE/A7xIE3QZ1fpNwwMTvd1Mf9dIa9dIU9eBzG3pDcalwgMLmEPCa+vXcow3sWVdH32iKM9fj/Pz8BPuuJhiquvQ4Vl0n5KQ0hor770JiUQjX+cJBkREy4CThaqvtqA8GlxA0eg12dwf5td3NrG4LURNy3xZLO+NGrIKVvjKU4vJAgsHhFP1jGa6M57g4ntVZ87QmtpxyraevNjHtT7W5eE1Bjc9kedTDiho3HbUeGmp8dLcEWNsWIuAxMM1bYYIifdhvsqYtRHudj3XtIVreGeSn5ya4Es+Tsh5qqiuiLwPRIIVrUU6fFseyGvqh1oJYXrXm9w9FtIAp2NTg45k1EZ5cV8vajjA+jzHjjFJxJ521mEjkuHwzybneSU70Jrg0muXGZE5b7bxzLn6vs3B52/9j5SWpRJ7BpMU7N1L4XQZ1AZOVtR42twdY0RpkbWuQphoPQa9rKnRQxA/7XaxqD/EFr8na1gCvnRzjaG+SoYytz+ofQoiC7JTsEjKrDGB8oT9wUUgnC1FdXWEXq1rz+4GuMPKabG/18fy2RraurKEh7LkjBlfWe3AiywkVF1+a4OyNJGfH8gyk8/OSDFNvod5HeQA5IJW1GM1aXBrPcqgvyfLwOBua/GxaHubxFVG6m/x43YYu0MFJ4HU3BXQM31bvo+PYMD+9GOdiLMdDGrr7gdVCyGjFEF0IYUqp+8+7qrLNs4eiSKPP5JcfqeGTj9aztiNE2O+ekUVXcfXEZJZzfQl+/P4IJ/qTXJ7IMZGx9PCwIsmLLrjyAQJuQxfR1PgMHe8H3YKQcr1F4VhN/ZusLclYkkROEs/a+v3Un3HtFcgp4utB41mb46NZLsTy2tofvhTjYxvr2NgVprnWi99t6s9Wr5DfxabuKPVhD+11o/zFkWF9HJd/+Cy7V6sqSVHnzGlfUCyORZd613rEKRKoVsTNAj5TsK7Gzac31/H89haaazwY0xiezUsGx9Mcvxpj37lxjvQmuRrLaeIXKaOsadBVKJ5pDrtZUe9lZb2X7gY/oaCLUMBNyGdqVzvsNXEZ6M9QVlu9Tzpnk8zYxNN5JpN5Eqkc/SNproxmuTySoWc8w4T6eV5qF3wyZ3N2XBE+x6GeJBuavDy7JspjK6Msbwpokqtv4PcYrGgO0hz1Uhvy8J1jw7zTn2I0Yz1MSTofsBloa33prZM3Xn5qQae8LJbrXiOQa6rn57ODS8DGOi+fe7yOpx5poKXWO+NIK5O3OdMTZ//pUV47M8GZ0SyZaUk1XfoqBPVegz3LgjzeFaKr0U9d1Etj1KtLXw1D7bjOm4q7776SW8G62j7U+8dTFkPxDGMTWW6Mpjjek+Dnlyfpi+dI2VLnCSxb0p/Mc/NanrNDGfb0Jvj45np2r6vVm8p06/7sxjoiAZPw0SF+dCnOZP6hycgbTjjbYUrTdKa3LhgWx3VHq2qsqxL93vCbgk31Xj63rYFnNtbTFL1FckW0ZMbi5PU4f39ggH3XEroCLesEucqCh12CzrCbTW1+ti0P80hXmJYaL+GAy3HNxSwq4woQ3PK/hLMbRIMuIgEXdmOAVDbMI8sz7FyV4Ni1Sd7pmeTKWJbRjK2vKS+hP2nxgwtx+pW3kbd1jqEx6pk6KYgE3WxbVTPlrbx5NcHIw2PZPYVyWMPjDHFcMCx4vLzifzsoLEuLQP6Gs4NVXfcPgFrrm+u8/NqORp7ZVLDkpkMAxeWJRI7D50f5xuFBTZ7RrE3xlMolBMtCJs8sD/Gr2xv4xGON+oy9o96vz7XV+9wPyT8IU7G+IXSyrS7kobPBz8oWPxta/NR6DNIpS7vheSeGz9iSvnieodE0WBZ1QY/eLPT1qN3fbeiYvS7oIj6Z4/JYlofk9E3qkcyCH8T2/dmC6r4vONFDe37Pg+RZ4NOOnE4Vd4Fa8K0BF7+xo5GPbm6gqeYWyfO21F1jb54c4e8ODXGgL8mkdcuKRzwGW5p9/OauZj69tYFHlkVprvHpgpbFgMsUOknYWONjWZOfFQ1echmLZDpPyipsUsovHU5Z9I5kyGUt6p0cQfH0wONsGiGvyZWbSX3OX7KjSecP6gElheCbdU//j/Hxt/50wT5owYke3vN7QVGw5tsA90J/XilAWzxR6AQTRSv6IZZUudTNAZPPP1rHrz7Rpl3t6SQ/o1z1/Tf4m3dGOD6c1cUm6j2DLsH2Zh+f21LPb+1p5Yn1dTTXFgg+V8t9v1Cfp0gbDbjpagzwWHeI1fVeTMtmPJknbRUy+SNpi/ODaa7cSOjrb2/w6TLbomVvq/Pqvx8cTevfrXDLLgo96fINieyN7fvKgn3bRYjRpRfEikonuSEK27MibdBt4HcX68MLZE1kbZK5Qr23Ne1oSiHsFnxkWUgnrBoinimS2lIyNJ7le+8M8rUTYwxn7akz5xq3wdMdAT6xpZ4da2q162vOZ/fKHKAI317v19fUXOOlIzLCj87HdDZefe+xjMVbPUlse5D2ei/rOsOa7Ao+j8medbXEJrPEjw5zfjxX6fF6EES3lPKgM4p5QbCgRG//kp6rFkXQVmnn57qLyxDUeAzqAy66aj0sq/HQGnEXylLdxhTxpA25nE0qnWMwkef6eJZrY1l6xrIk85IdbQE+tbWBVW2hqTNyRejReI6fnxrh+2djDGULXWDqx8pV/6V1Uf7J1gbWd4aJBNzz2qE2H1DXE/CabF4epUbF32EPf3F4iJ5EodY9Y0mODKT41tEhPmsarGoN6eYYBbVBPLOpgcF4jrFjYwxlrUrugAsUxFiEuZAJuQUlujCm9KyjlZSEcznZ7TX1Xj6+NsLyZj/1NT7qIx59dKUW+O1fVq3TnCWZSOYZjmUYjWU53zfJhaE0jy8L8+jyKAHPrb0wnsxx5Pwo33h3WIs6FEkecAn2dAT4wu5mXQbrXaQ4/EGhwoiVzQH93WKJHF97f4yBVKH0NZ61+f6ZCV0z8Cu7DS2OoaWutEfg49lH6jg3kGJfX1JviBUKH9AlJIHuLx3KXPvjhZnNtrCuuyK61GWvwQX9nEWCxxBakumRJh+7lofZ0BliVVtQyzO5zFvx+AftaMrCeyMeGsJu7DY0UUfiWe0BhP3uKZc9nbV570qMfzg6zInhjLaA6kc1XpPdHX6+sLM8SF6E+t4ttV4+vb1JZ+u/fWqcK/FC6etA0uK1sxN6kwz6XPo40XC651a3hfgnj9VzM5HnxEimUq26eoitUtBumTK2UDpyC+ZOL3vhsJBqtxJ8Hni6nF13RcA6r8mn1oT5zZ1NfGF3C7vW1bKiJagbNhTJjXuQfPp7qd9Viz/oM2mMeAj7XFOudyJj8c6lCf5m/wA/v16wZOr3G7wmn9kQ5XefbdfWv1xIXoT6DrUhLytbA9R5DIbHMvq8PWdLfUw4MJrBL2xaan36nuLE642K+LbNez0J3W1XocgA54ELsf1/tiBEXzCLbhXkbGsc171sE3GKgC0+k2dXhPitZ9pY3hzUbujdstp5p2w0nbWwrFvKKsqKqZfbZeiOM49596y4+vUbI2l+cmyIw73JqVbOiE7WBXRTi/IglLUrR5gGuljmmY31pDJ5EkdHOO8k6C5N5PjO8THa6nw0RhoLHhJQF3KzfWWUVcdHOTq4pCPGFxJNjvLSgvFxwd5YGrbLSTK0lGt8bgrBmho3H1sb5eOP1uve6ttJpuPuRI7xyRyjsQxXRzNcHkoznsqTzdmavMr61gTcNIddrGjwadGGaMijrVVxQeO47PvPjfHzqwnGcgWSu4Rge5uf57c3saotXLYkL0JZ9qYaL09trGcgnqP/vTEtN5WTktOjGd48O87mZVHdDCOcTbKj0c/27hDnxrK6nr4C7XpUK85AtOvFg5PXX51/xZkFI7oAUxb6z5sX6jMWEqaAlSGTX95Uyye2NtLdGJih4KKs0GQ6z+UbCU5cj3P0SpzLgynGMjYTOamrwYrdY4qbHiEImOjKsaaIhy3dIT7ySC2t9X7qQx6txHpjLM3+8xNcjt9q3azzGjz3SC0bl0V1A0olQN3H5U0BPrapnoNXJ508BDpM2X9lkk/0xakNuafCk4jfxeMrIrx7Lc7RoUwlnq27CnrvtEgh+xbqAxYEUgoPQmu4Ny3UZywUlFu9Murm+Y21fPyxO0meylr0jaQ5cTXGPx4f5cJwWksdJ/L2XXurszYkkYzn4EbG5kLC4sxIhmM9CXYsD7NzdVQXupy8GuP4zfTUQvYYgm3tfravrqEm6F70IpiFhApj1rWH+ejqKDdiIww6R2g3khZvnZ9gZVtIx+uGo1+3viOkm3MuTuR1LXyFQe1o7TZ0CXh3IaSlFsREdOw9JBCiC/gcsKWcEnG6B9xv8ju7m/iVXS26jrvYgKFi8IGxDD86Psxf7bvBPxwf49RIVgsfZu1C15Vw3FO1MfhUTO4SOgSYEmV0lGAm85JrsTzv9ia0auqpa3Heuhjn4kShQMRtCB5v9PLPdjezdUVNyRTDzCeUxVaWO5ks1BSkLFkoLkrltSej7r3POXJUfxouQc9giuvxBe3/WAro7l0BZ+y8fTj4xO/akwf+67x+wAJZdL2s251XWQWVimBbW/x89JE6nTgypnWO9Y6keO3dQb57cpxTIxmmH+2aztl6s8+gI+zWGXW/z9QuuYrVY5M5RhJ5BtK2llDK2QW9tkQe3hvKcGw4o5/2dJd9R3eQzcsiH6joWu5QHkpno5/nNtZy8kaSsaGCC381luPwhQl9uhD2uwpqtC6D9W1B1jb5ONyfrETNuaDii3CZUVMyPN9WfUGILm3TEIbdCbKsKuIKHWAuPvZILS11/ikZJIWxyRzff2eIrx8f02fARZKrjaHRZ7K+wav10Na0BnikPUjQaxZaLwuDT0ik8/SNZbkwkNTDDs4NpTk3ntUCD9xWEquu45FGH09sqNMVZZUMv8dkZWuIncvCXBjNEc/b+hjt5GCaUz1xXURT6LyDcMDN+o4gyy7GOOtk6ysIiicdAtoQcnS++9MXhuhSOVl2h5OIKxtzFHYL9iwPsWV5RB+DFaFi8vcuj/OtE6NcnMhOWV1FyMcbPOxaGeHJ9bWsaglqK+5zm3eUpKp/091is21VVHeiHb00zreODvPeYFp3ok1ftHUewZauIOvbQ2V3Xn6/UPepMeplx8oIb16IcW68ICt1JZ7X8ljPbMjhiRSKaFQ4tL49yIqoW8tW5Ssv/95R8ILFqfl+43knesfewwbk60B2lFNbqjLe3VEPT62roa3eP7U7ZfM2F/om+cHxUS47QobqZx5TsLXJx28/0cyWFVFd2aVI+UG7mlqoXpehXwGvqc+H60Ie3jw1qo/TVNyp4lPlIayr9+qz47AjvVTp8LgNupoC7FwWou/UOOPZwqnF+cE0524k2R506/umLHtDxEtHo4/wYIaxdEUl5URhggudCOme77r3eXerI0/+jglyM4jPOkUAJb9W1QUGXYLPbq7lo482aHdZOO701ZtJ/v7ADX54Pk4sV/Cm6rwmn1wR4neeaWPPhnpN2unn4feCCgl8HlMnmzZ3h1lR68Fl2VqmqSng4vPbGnliXS0h38OhjK1r+L0uDGlzqi/JULKgMJPI2nT6DV3u65/qAxCkcjaX+hO6fLbCoB54D0KciO37s4n5fuN5hdTJN9EuCom4soAu4gi4tFvY4JAcpxz1dE+cNy7GGckWSK4s7o5WH5/d2aQ7s+Yi7qBcUeW2PvVIPa21XrpPjjAQy7FjVZSIv2yLCR8IXpegrcHPmkafTnSqTTaWsekZSTPs9AMInX03WNcWoCXkQgxnKs1514MdpBRNwLX5fON5DwAF+ERhYmpjOVhzBa+BblRpqfPr7C5OynMsnuXI1TgDqUJrpdoQVoZdPLuhlg3dEZ1wmyvUDQr5TNZ3hfmnu1r4/O4WWut8FZtp/yAIo1Axt77Zr3MfCnkJl8Zz9I6kpzKVLkPoJqKGiOeOCTUVAF1NKpAt7f/m0Lx+uQXwDUVxUIN//t97YeAzBeubC6Wp02PzgbEUp/tvtUgq935Lm19b3KjfNa8FLCoG7WoM0FZnP3Qkx9nwon63ngLrdwmyWYly4K9M5Lg5ltYqtMXgyOUqaMy5xAIrKi4+im3dbQJhzKcQxUKkdFsKNe7lM3op4DboqvNqS1GEipfP9KcYTN7K7XaF3WxfVaPHBBsLYE2K7ZlGJZXA3QdMZa0jXhoCztKRaDmp2GSO/LTDJpdp0Bz16HlwFQbhJLC7sGzffL7xvBJ9ze8fNhxr/ki5EF3d2fqgi2jYO6NhZDKZ473rk4ykCytMkW91g5cdq6MPTZJs0eEctbWHCve3KNbRH8sxmbrVvame0/IGn5bGrkCoL79BCiLz+abzSvSMa6o4v6GcKuIiPhPPbfF2PmcxPJGZqsByOS2WEV2ptUQXWuHQfc0BF7W+WzdY6yFP5nVitAiXqTZnE09F8lzfhm7k/Iq1zOuStbAD+iILwvRlAy3k6DJmpA4tS5LJFJJwCm4hClrklWlFSgYhn0nUZ84IX8Yzls6ZFKF+5nWbU4nTCoP6Us0C0dj+wpF5+4Lze6eEji/KbmKq2xB3NI3kbambWIpVcKYjdige0vh5seAyBF6PSXE/Vbc/lbPJWzMrQgtCHhX7LAIgO4Ww5+2Mdd4I2fqv96m7HnYselkRXa2h29tLTYf8YtqCe0jH+y4uRCGrPv3oLGsVlHSnwzQNavwufRRXgXRXHvGq+fSM542QpqkiJz0WubVczs9xSl8tKbFtOaNfyOUS+HzmrTNdW2oVGbvyuqZKDsoln16HlLFsPbhxOmrDHn5jZxPPrwnTFa44wnuBTSCDHb//9rx8rflLHxu4kfpYrawGKda6TTa2+KgLz9RG1xYj5MZjZHRLadZGJ+eyOQuJu5IWVclDTh/07iDoM/nY5gY9AmrN6VF+enacE6NZUpUhC62MZhvQKE1jeD6UYeeP6FJ4QK4sF6IrC9AaMHludYRPbm2iq94/42zc4zHpqvcRvp7QPeM2Ug8U6BvLUKOP4qpUXyjolt1pfFXGPK3jdKn7+4sTrhTZ13eEdZVcd6Of750Y5Y0rk1rppwLoXodgjRBcLhmit3zpmJBk/QJZFoUyapF0BE0+80iU57Y2sbo1OKMaTS2yTM5GyluzutXf9cXznOqdZEVzAI/r4apFX0zYUs5oxp5I5zl2aUIfa3Y2BqkJuqaSp2rDbav1UbvZXVCryVi83ZfUPe1lTvYaYC3wBpCY65vNCylNI+dCylaEjs9LWmjCFIJ2v6n14D69rYllzYEZJM/lJb2jKV4/NsS+i3HdMlnEzWSeSzcSpDIW0WCV6AuG2xg6mrH5r0eGOXBtkj0rIjy6PMKq1oKmvtbSF+D3mnpM9K+nLaLvDfHza8lyn7OuiL5OIALqFsz1zeaF6ELYfpDbnPLXkoUyAhvrPHxhWwPPbqrXGuJFy2BJ9JikoxfH+P6JUd68kmA8d2vmlyEEUY+BS0Iia+nk3UKUwT7sKLrk6l5nLKmTcJaU9Ezm6U1McrAnyer3R/nImiif3tpIR4N/Sgcg4DW1ZnxHg4/mI4N85+S4bkiyylOKRhF8lUR2du49dKPnlZ1zqnufF+sb2fPFCIjnEews5fFLIbehRxN/YmsTbfW+qSMctZhG9PzxYf7mwKCeP17sPS8OU1wXdfOZzbV8fGujbj7xfIjIRBVzQzZvE0ASlJJMXpK2CxuxomvGltxI5rk6mCafzlMTNPWo5mLxjPLOlAtfG3STTebon8hqIc4yRRI4BpyN7f+zOUlLzZno7XsPCSFoRshfAzaWaoyuyLq9LcBv7GllZUtwSr5ZLYG+4TQ/OT7EP7w7ooUalSURjpvfEXLxTHeQz2xtKCTtGgJaNKJK8oWB8pwaIx49125lS4D2iJsal2A8ZZHOF+Ju9Zq0JP0TOUYnskS9phYLKW6+ykuLBlxaECQ+meXCaLYcteCFoxt3HsShuY5qmjPRI0/+nqLMeuCzFPrQS44DKoZbEXTxua0NPL2xbkqHTauYpC1ePzbIXx8a4tRYTss2K3hNwaZaN7+0sYZ/urOZnWtq9WK6HyWZKh4MyjoH/S6dZFvXEWJls58wEitj6dnqjrOlJ7z0jGWJxbM0KmKH3bo0Vr+HaWipLo+QnLg2qeP8MoQymlcl4o3wk/9TNr7/v8zpjeYEZ/7/cn0cUIIkV6hxm+xaFmLHmpopnXB04s3WQxO+eWyUc7G8LorB6U9/qjPALz1az7bVNXqYf7mPQio3CMcND/tdhSO0sId1nTHeOD3G/quT9CctXd+g3PL9PSny1k0tVPHUhvqp0livx9AqQE+vmGDk9Djj2bI7dvPo3nRBq8BOzOWYbU4WvflL+4QhDJ8oTEx9xpn1XFLwGIJnugP81tNtrG0PTWXYU1mbY1cm+Mt9A/y8J6kXjbL8EbfBx1aE+Z+f62TnuoLccgUqmZQNiq64IvyypgAbOoJ6Lr2Kz3tiBdltFWqp/x4YTbOiwavP1XX5sqNFp1z40bE0/fG8jvHLCOorpBDKfbcvxvZ95YGJPieLbghDSGRIIJTLHprLey0EtKymz2DniiirWgsJNJxz2hujKX52YpjDPQlNcoWgWdCD+/z2RtZ1hCu5aaIsoTbpjnq/PtoM+kxuxnv14AsVfysCHxtI8fqJEWpDHl0xV9SDX9bs5xceqeXCSIbTo9lys+qNQrJSItya9A+IOfmjpmG4DCG6nWO1kjs/95gGaxu8bF0e1kP2i7RNZWw9g/yNS5NToo9ao701wK/taubRFdEqyUsUyusK+1xsWVnDF7Y1srHOq702hYQlefNinHcvjDGRvGX8wj43m5ZF2NoRJFh+IViNhOUSQq0vHnzgRTnXb63IvdIRgiw5NPkMtiwP6/Py6fPTrgwmOXAxxvnxgpa68uY7Ayaf2FCjY/JooFoMU8rQIVbAxVMb6/jM5hq6QwUbU5iznuX10+Oc75vUzxpnLntrrY8nV0dp8xt3DNcocRTidCma5nKgOyeiC6mF5leVItHVYuiq8bBzVXRGFVs8nef9KxO8dyOpJ4Io1HhMPrY2okleE/RU1NTSSoV6RM01Pp7e1MBHVkep8Rj6uSkX/nB/iiMXJ/REnKKb7veYrGgNsrkjSKi8rLpR6AiVXWIOye4H/sbtLx0QtqElo9Y7GfeSgtcQbOoI6pHH08cane2d5Eenx+mJFVw7Qwh2dwZ0ldXKlkBVJqqM4DaFron45e1NfGJlWBPYlujS1x+cHufYpXF9fIqz8Xc0+PnExlragmU1AcfQGg+CddJwL4XrLtT/tTv95yUXn/sMwYbWAIFpQo45S9IzmOT9wTRZx5oHXILt3SFWtga14EEV5QXTEHoQ4xNronomG059RG88x7tX4wxOZKZ+N+CMYu6qLTuvLQp0CmE9cGfoA69sIRFILTTRUoqKMlGvSXeDb9ooH7SS6PmBFGMZe6qGvT3kYk1H6KGZc1aJCHpduqHl0dbAVC4mkZccuZ7g5mh6yn0XQlAT9rCu5daQiDJBoT/dtmse9A0enKCFKtFOZ2JqSUFdWF3QpcfsTnfF46kcZ4bSU8dpak10R9y67fRh1VKvBKhn3FLjZW17UM+oV1DP+Pp4lqtDKd1yTFFlNuRmTZOPB3eClwztIJeA6IVJLJ2OTlxJ3TadqAm5ZlTBKWqnMxYD8VuzPQIu5cr5dJa9yvPyhsdt8EhniKaAk4F36uHP3UyTyd1q/PK5C3XxoXkYp7WIKE5arV/2wuEHWqlzIXqjk3EvuTumSLu81kMocOvSsnlbq8NMpG71KDd6DNa0BnBX+AzyhwEqVlehWmeNd8p9T+vRy0ky2VtE1+fwIQ/NwZLsvfowNAArbCEfKE6fywqvdXStSg7qMdf6zBmTTvUstVhWl0sWUeMWdNR6qUq1VwbUht1W65ka7KAitPFEXguFFHMyxb51tT7KDHoAo40MdjxA4cwDEb37998xEHqHaS41tx3ngvweA7dx6+vZNkxm7KmpdcWZ6A3TZImqKG+4TJPWqFcfrRaRzkvGkrcGceCcqYc9ZefFFYrThAgJ4/6LeB/o29qunNcZvVRy9e04Z+NuUzCN51oRJpW1bz1wUTiHnct88ypKC6YBNX5zRqIta0tiqfwMTX6v2yBQftm4QpeokBFhWgtv0dv3HhC20CoyK0syPi8OX9B949MEHymolRQfuHJJTJeh53JXURkwDEHIazC9TUE3vOQLQp9FuExjSnikjCC0/LOk07KM+47T75vodi6PkDrNv7kU1WRkUUX0Np0BRXqXwVSds/49S94uF15FGaMo+zVjUd/1+ZbtQ68RsENI476P2e7fbxXClIWS185SLJTB0YCzLHtGXCYE2k0v7uNqh8/mbdK5slYKrWIalLeWytszZKOUO+9xzWwHyeUl2TLUlnIEIzeAvO+Q+b6JaphmQAhWO3K0JQl9hpq1dclrEcpdqwm4po5e9O/kJUPx/B3Wv4ryhG1LxpMWuWl/59buvDkjRFPrIlOegpG+Qsgs6jpeevu+uPsAFp0QiA2lrPaqHuFI0tLJtyJUTNYSds+YqT2RK5ytW1WmVwRyls1ALDdDRcZrQm1g5hhm5cVNZsvymatQuR5ol9K4r7D5vokudCWcXO+4ESUJ5bEPJfKkphVKuF0GjWE3gWnHKmM5ybWRdNWiVwhUuNY/kaGoA6mMeMTn0qIj03OuyXRBZLJMoRPh4j5Hn90X0Tv/4IAL3bEmSpvowNXxLInULZUR9aCjYQ8r6n1TDz2WsznXn2QwlqnG6WUOZcQHxjJcG85M9TJ4DcHKJr+eo1eEMgLxRI7BRNkSXcXnj4IMdr301qyPDu7PokvczvzzSCkWyhShHvNQPMdkIjtj3K7a2Vc3eKc6l9SP1IZweSCJVZ7JmSoc5PI2524kGUzmb4lNGILVTT5d315ENm8zMZklVr4W3eskwmslYtb8vS+iSym8Tn17yVrzIlQMdmU4TSp3yy8P+12sbQnQ6L8Vs91IWpzpiTOezFWteplC6lLXnBYVGXNm5bkMQUvIxYom/wwd//FknkvD6XLNulNszkSwysacteryrInuDGRXb7zC6VwraSQtyen+5Az33WUKlrUEeKzZN5WUS1k2h65Ocq53cqqdsYryQjpnc/J6jON9SbJW4RkGDMFj7QFa6m6FanpDmMxybjA9JSNWpoiCWAdi1nH67C26W5ggG5zSV8+DXuFiISfhws0Ug+OZqWM29byXNQbYvixEY+CWoOCpwTQHz41xYzRdLaApMxRi8zSHz49zbqSQa9FtykGT7cvDevhGEWojHxhNa0+vzLf0KJL1QspZe9azJrqQeu7d446iTMnG50XYUnJ2JMPr74/oAYpF1IY9PLmxgY+uCGsZKfVFhtI2f3dijO8eHaR3JIVV5qvgYYHavwfG03z/3UG+cybGSMbWhVHquX50VYRtq24p+qoNQG3kPz09Rm8sX+4beghYJ6VobXvhwKw4PGuiS4Sv4C7oRFxZYChl8c6VONeGkvqMFR27QVeDj52ro2yo9ehBipaU3ExavHZ6jLdOjzIUyyz1pVcxC8QSOY6eH+ONs+P0JfJ6c3cJwdpaD9tWRma47dm8Tc9QknevTxLLl/1OruN0AV2GmJ1kyqyI3vniEWX6ggjWlhPR87bkwliWI5dixKZlY31uky0rIvzC2qielqpulXr0F8dzfPvdYU326b9fRekhnbU4cmGMb70zzMmRW4nUtoDJJ9ZH2dQdmepMlM7s+8NXYlyP52ecxJQphHbfhW4sm0eLbuijiCYnPn9gJcrFhnqcN9MWhy/HdEa2WECjiN1c4+NjjzXwzLIgXmdTTFqSIzfTfOPIEO9eniCRLnsXryKhYu1LAwm+fmSIt/pSJB0L7TEEu7qC7F5fR2P01jJVz/3yQIIjVyYZz5XdoMUPQtRpW51VB+msiC6lfrPljqpMycfn06HiuFPDGX52ckQnYooP2W0KupsCfPyxBjY1enE7ZM9JeHcozd8evMlPTwxzYyw9o2a+iqWD2nTHEjmOX53gawdu8nZvSisGSacgamWNh+c21bO6NYTHdaunoX8kzY/fH+XiWJbyN+ZT8OlSWMSsGlxmtRtEnvyiC6Ymppb80drtSFmSG+NZ3FKyri00JQHtNg2aarzU+U1Sk1ldH5+xpZ6/fW08x7Hrk9wcSmFZFh63Scjn0s0RZbXTVQAUOSeSOc72TOqE6V/sv8mb15JMOtbZZwo21Xv557uaeO6xRj2AsYh4Ms8/HBjgmyfGuFm+RTJ3g1qGSQE/i+3/s4F7/fKsiB7e80WfEPwWsKUUxSbuBbUY4jlJOpXXmt5NUe/U+GRF9vqIh7qASXIyR58zilcZ8VjW5uJIhks3UmRTOa0qG/CauhNOCFFVjl1gKAuuG1UmMuw7NcK3jg7xvbMTXJrIaeUY9KkvbKz38uvbGnh2U4OWcy4+lrwlOd0T5y/fvsn5WK4Sw7A8yDfCT/3Opfi+//qhvzirDhghZJ1zrFa20wfVMz47luO14yNEAy5WtoXxOu5dbdDNjjW1eFwmUf8wP782SV+ioDOmvIHTY1luvDuqCy22dgbpbg5ot7856tHegaFIbxQkrKrknz2m3ypFQi0YIgt6AumsRc9Imqs3kzq/8vqFONdiWVJWIXGq/m3EY+iw6zNbGnj2kXoaop6p91Thlvq36nmfGa0ol306akG0WS7bLJD+gzHbVrfGUpyvdr9I5W1eOx8j6BY8v8tgRUtQl0oqctYE3WxfU0NjxE3TsWH+/vgoAylLW/acLRlMW/zgUpw3ryVYXethU5OX5Q0+WhsD1EU81IbculPK5y67aZ1LBtMoaPupe5zMWnrU8ehkjv7hFMOjKc7eTHP8Zppr8RypvJyRRAu6BM90BXn+8QYeX1VDXejWmCW1YfSPpvnJiSF+fH6CRPkfp30QVJzeZuTNYNtL+2P9L+/5wO1stkSvdxJxZQ11FwaSFt8+PYHpMvnl7dDZGJyy7EGvyer2MEG/C5/X5K0LE5wbyepCDLV41IJUceGJoYwuxgm5J2lVG0PARX3A1BZGvVd16svsoKInFULZtiSZl8TSNsOpvM6PDCVyeqxS1i4Qd+po1BS0Blzs6grwuZ3NrOsIF8ZpObc8b0vdxfbTE8N89/0xeuIVfUyqJ60a0oiCjH+YRtY9id6+94BwiF6yijL3g7yUXJ/M81fvjnBpMMWvbG9k17o6HXurL+pxFbLxv/1sBx/bXM87l2Icuxrn+I0UVyeypG2wkCQtSFqWtvTTUaX4g+Nuq1SLfQpB1GOwrMbN9s4Q21dF2NQd1rkW8zblmBNXY7x2bIgfno1xdbIi4/LpUF++TWpuit4P+8V7Et25jb5yqG+fLbQCTdri9SuTWoVGkXxDV4SIYxnUdw75TFa1Bmmv97N1ZYQz1+IcuDDBezdS2kqkrMKgxtudwspeV4sH4RyZKQu+Iurho6tCPNIV5pHuiK5fv0MHzpJcuZngHw4O8KPzMYazdqWTvIjAbLg5W9fdKMds+4dBOsduB/pTeN8a4LmNGV0b3VLr03GjIrxywZU7v7IlSEedn9UdIZ4ZTHJjOM2lkQxXxrL0jWd1fJmXTGXrZ0N3nbi7y9/bsiBNXS4QQty1GKOoxnsvFJtQ1N1QrrzHQGu8NYZcrKjzsqrBR1eTnw1dYRojHk3w6Va8ePR2sW+S194f5ccX4ww9PCTHiYDuWQ8zW6JbzquiUBCItHn96iRXxzL0jaR5Yl0tK1tDRKcNy3cZApfPZENHmHXtISbTFjcnMozFMkzEsoxOZhlKWIylClpk+Q/RphLO+/ndxpRQ5fTrSWTtqVbLcoD6Hv67zJVP5yXpvP2hZJfOEZjbuR8Rr0lz2EVbjZdQyE1d1KdPNlQMfvu9wrHiN8czvHdxnB8eH2FfX0pLRD08HNfIzYabsyV6GsiUg+DEgyBjSc6N5xh/b5QzAymeXBPVhG+p8ekpncU1pqy8ihcjARdhn4ndHNDKNMr9T2QtXWqZ1Yv7wz/PEIXz+9vXrnSkiK0yMkeKpK67DEPI21KT+F7fxLal9m7Ue3jdhr6vitimPqosTNu5/d0tW5JIW7x/LcahC+O8dSmuk6OJWXxehUHbBqG4eY/k0D2J3vvKbtmx9+AQMFYJmfe7QTrztPsSefovxXm7N8m2M+Ns6QqxdXmE7kY/oaCLkLcgMqhdTWdQgLI0aoHWlN90zrJC3iH32GSWC/0Jjl6J8bMLcS5PZHU1YxntjfONPikYk4gPvQOzXZ3DwKijLlOxkE7hxkja4idXEzrTvu/cOGtbA7rt8dGuMAG/SyfvvG6zel6+wFDPIp2ztac0NJ7mTF9CdyKe6ktwJZ5nLFsxDSoPinyB6GLiXjditkQfAPqdWKCiknIfhLyUDKQthgdtXRl3+HqC1Y1jLG/0ad25jlovPp+J3+vS7r2y6h5TYBofnhcRxRDAuHsVnbJcc5WfFs7/qM+422ZkOZ/xYWtDZ72dar8P/awP+fFsrayuUbAL5a6ZnE0yY+mZ5slUnhsTGa0U9N61SXrGs9xI5pnIylkl+h4CxICrQKrv5Z3zYtEngHNOU0t0fq6xPKCIN5qRjGUynB/LErocp0656n6TxhoPKxp9NEU81Add1PpNTfgPo7qKO30+F+0Nfl2NNx0qvr9yI0E8kZ3bRSuSmwbtjQF91jwdih+9Q0ltIe/FdM+9hhEKqI96aaq9s89paCLDyHgaOYva05wltYhnPGMxkshrqacb41kGRjMMJ/K6tXQ0J/WzqGIG+hHyct8f7ZqnZJwkj+Ag8Cn0AIfSnLm2kFBLTMWCmaxkNGsjkha+8RxHe5N4TaEngriNwhHRh8FjCDZ3hfj1Pa13ED2VtfnHo4O8fn5iTteqrHBzxM3vPdN2J9GRHDg9yl8fGb5n0q+Qj/jgbj2PS/C7e5r55A7/DMuu3va9KzH+ev+AVl29l/FVDriy6HlZSIwm84UeA/WqkvsDoazBWYG4NptfnhXRDdO0bds+BPK7TpVcy5wvs4whnSGNakEmP7SV4E4EXIK2RF5npG+HWtNjyTwnx3Jzuj5TCHJC6Pj2DkhIZCxOj+emBh08CITzXZIf0PqZylhasadvMlepDSVLCXXTLwDflFInye+JWVnm63+0XUophpHiW8Cpe3XKVFFFFQuKceAt4JBAzKq+ZfbikLbIOnH6d4CeSiygqaKKMoDi4XsSviZhoOeVD0/CFTFrovf/8XYpDHtCwA+B7wMjc7rcKqqo4n6hjOt14OtCclTYupBtVrivpFrPy7uljVTB/18CP3N2lyqqqGJx0A/8A/C6gMneL++adfbjvsu58tLOugzzPSH5E6AN2FnOyjPTUSxxDZhCCxu4DaETSVm7kAFO5Kvnt4sJQxROM4Kmgd9pNMrZkrR6FpbUx3IP0dNQcfmfAV/BZqDny7vuq9rivol+81WtYpHrfPHA+1KIvweanYq5si6kcQmo9xi0R9ysbvazptmvmyzUwhqezHFlOMPJvqQu2EjasppJXkAYojA7rS3oYnmDV48+7qz16OEME2mL3vEMF2+muDCcYSRr62O5CkcOOCyltuY3+u6T5DwI0YuQiBTwA4fovwl0laPugrrgBq/JukYvT6+K8NiyMA1RL6GAWxeLKAueydpa4/3SjQQHL8X0UMaiQGHlr7HFhfKi1tS42dYZ5InVUZY1+QkFPAS8BUHOXL5QOTcxmeXwpRhvnZ/g1FCGkcrtWlMkfx/4qkBe6X119wPVTT4w0Xtf3SXbXjx0VQj5V6Jwrv75cpriUkTYJfjEmjCf2tKgZYlqgu67dmMpdDUG2NAZZvWZUb7zzjDHR7Papa9ifqAs+aqwi3+xu4nda2tprPHp9tW7ldnaTQE6GgOsbw/yvXeH+PGFOMO5iutDV9/mGqA859cQctbJt9sxp5arPHnLxLhiIv67U0TzjDMAriwQNAVPdQX51d0trG4PTclJfRD8HoPORj8fczcS8Zu4Dw9r4YoyH8FbEnAZgpVhF59/vIGPbG6gIVKYi/dBUJuC+p2tK2u0Eq/HFPzwQlwLelYIpNNM9o/A1xEM9b78xAMvtDkRfbAQr2c79h46API/AEng+XKQnQq6DZ5s9/PbT7eysTvygVb8dpiGoKXOy0c3N+qhDn0/7OVybG6VbA871J1fFXXz2zsaeW5LI83R2U39Kkp+Pbo8SiTowjBv8N9PjJMuI+GOD0Ev8DdC8hUMcbnn5Z1z+lLzUrPe+8rOlBTiPQqWvaccpNPaAyYf31ir3fUPIrmUHyxYGPa7eHRZhO3tAZ2l9xmze3nF3TvKKg5CxdvM6p4oz2p3V5Bd62q1XNTdID+kG87jEixvCvD0+hpa/BXRhpEBfiwlf2XDtbmSnLla9OmwhSdjyuzbTuXcbwINpZqccys3scHH5mURrRZzO/KWZDCWZTieJeAx9eJTlsO8jaENES+ffKyBphqPbr6YjQev3qO93kc0WBEnkneHQItqPr+5Tg9i+LD7IpwuuZ0rI3TU+++4x9LRfO8bzZDJ2zSF3VpD33ObfJXbZbCmLcSyOi89SaucJ6aq2OMs8LfApfkqN583ot/4oy2y86V9w1K6vurE658u1eRc0EQfn9WFPXdokakFcuVmktePDXJxKKPbUTd2Btm2upbOhpntmMqSbF9Tw9rO0KyP2wqS0oaeFlOpUN9xbVuQllrvrO6LaUDE78bnmUle9U8nkjmOXhxn35kxrae3ttnP46trWNdxa4Ze8TOjATermnwc7UsyuRBfbOGhLPcQ8E2EPNT3yu55G9Q/r6ut5+Un7faXDpwRUvyFIzv1kVIcs6xcxe56H37vzKN/tSiVFf/ZqRH+/Ogo4xlLW/8j1xNYUuhjN7975mKM+F2Effd/Gyt9xoMKbUL3cV/udj/SWVuPY/raoUH29SS119R4PaF71YM+F6vbgjNcRmXVu+p8urhmsjxPQ0aBbwPfki5zXveqeTcrAiOB4Ge6j7PghpRcJl7FhY0hF97b3D9bWfPBFPsvx3VhjF4qluT9kQxvX4rx9CP1+KN3xpCVTtoHxVzvSyyV551rcU7cTBNzWm6vJ/LsvzrJxhWTrGwJzHD1XaZ6rm685fc8ihn2vxaI/w/Eld4/3DGvGcV5J3pvQdIm0773yAGBVeP0r+8oJbGKwkC/uyfalCvvuc2d1+62ufADFHXyr8wM0UJernCEOm5PXrpFIc9y1+uRZVnEFAd+KuDvVFze88qOeT8jXDDyGcJOAD+hcPEl1emWkVJLFmVvq500DEFHg4/Hu0N6vlfAFETdBhvqvGztDn+gK1ok6FxfWcvWCitzgSnQ19wecWv39g4ICAZctAddhfrxB/wc6YQ62bw9lYicy+tuUO7/xs4Q6xt9RFyGfh6dQRfbuoOsaQ3o5zUdeUsyksyTLS+m54GDSP5CwsmeV3YuSCHAgmWEel7eaXe8cGAUIb6D4EknOedbqM+7HyQsybXRDKlMXuuIF6HWTWPYw0c21pPLWVwYTOtk3KNdIZ1083vu3BfjaYt4Kj/nZhc9AHI8y0jqwZOsLqGIYPLsyjB71tboCSe3Q1F78/IIX8zZvHk+xqH+FLH8g1WUKYLfjOX0eGOP68HdHeV+K1IHbytY8nkM1neE+MLORlrC40xmLda3BNi+OqoTo7d/Ys6yC8+1fOJz6STf/lZi/FzaRnKhPmhBU7+9X94tO1480MutyrmtwJ2rb5GRsOD8QJKxeJa6sJfpobpadMtbAnxmV6tuZgl4DC3+qBbi7VDW7Oj5Md67Fp/VsIJ7IZa2uDT6YJ2/biHY3uLjFx+pZdfaGj0ocnpWuggVfqxuC9MU9bG8NUTnyRHeuBjnavz+JZ+U6Tl0LUHa7r/jWGy2KJ5CbF8RZuvq2hnJzmImffe6ej31Vt3vhoiHhvCdx2vq0mOJnG52SZUNz/XhwGsgXweZ7P/ytgW78kVJW3TsPRwC+STIf+Uk55Y8E98RdPHrW+v4pztb7jg2mw0sKbnYn+CPvnuVn19PzktsrbYK+z5kkotQlnxrs5d/+VwHj62I6lOA2eQTlEUeHM/w4+PD/D/7bnIjcf8jhg09+Gtuy0i9xy+uCPEvnmnTtQ0+9/1FlOqalVf1g3cG+fJP+rlZHmWwg/oYDf4zyBO9r+xe0ItelNbS4J7/JWfI/ABCG4H1ztHbkra1KvcumcjTUePRzSqzLYGlKOIYz/HW6RG+eXJcz0y3nUPQubweZK9QhG7ymnz2sXqee6xRFwDNNmmoh0j6TOpCbq4NJLU3cb+pXjkP31t52vGURdSUtNX7qQ267yvxmcpYnLoeLzQaDWXKIRmXBt4E/hPSONH76q4Fr6FeFLJN7v9/iez6nRymGHGe7UqgbjE++4OgrGYsa5NNWbrnORxw63PYe60vS1nBiSyHz4/xzXdHuDCeu29yzCeCLoPdHQGe39bEsqbAXQlSXPh3+25CCO3ip1N5zt1IEssvzXijjA0jsZwuZupo8OlrutfwCOko2p7pjfO9o0O8eXVy6hiuhKFI/h7wp4bBPjvnTscP/OcF/9BFs6qxA18h8uQXkyD6HYv+6FIr02RtGIjnkJm8LnENeE1nqOLdF5guxRxOaUv+d4cGeXcoo3vSlxLNfoPPb63X1WLB2wqAtEubzDM8kWFiMqdHG7lcxh3ei2mKQmJtJKVHQeeW4Cup2ziatbk5kqHWW6gc9LlNfW13exrKCxiOZTh+dYJvHR7kh+djDGZLnuQK57W7LuT3e17ePbEYJGex3efIk1+UhTNDOQFikyNasaQufFZC/0SO60NJUuk8Vl5qPfS8LEwQURZjbDLPjdE0716c4LvvDvODU+OcGcvpgQ5LCRXbrqzx8vxj9SxvCd6REBtP5PjJ+yN848gQb5wb59rNpM6ON9X4ZpT+CicJOTae5lh/iuQSZa11yWtW0juSYWQig5W39IimjDNhNpOTTKTzegrM1ZtJfnxsmK+/O8KhvpRWmikDl30c+G8IvqZi9Ni+ryzaJS9qwXVvQZo21/7C/iPCMP8E+H0nE79kx27K/RtKW7zZk+Rof4o6/zCdUQ9dNW5CbkNLSY2nLfrjOS6NZLVrmJOlMb1T7ZBttV4iYc8dM9/UJnXs4jj/10/7uT6Z1xbTY8Cp/iT/LuJhZWtwxu8rC9pW79N99kMfMJRhMaDu7anRDBfGsnz79DitYTedETfNIZf2tCazNoOJPD0TWfriOZ1rKZP+lQng2xLxFYHs6X1596Je9ZJ0VvR9eU+2Y++hN0HWOLPc1i9l5VyxBTKel8TjOa7Hc+zvvfN3Sg0qvg55DJ1bmA6pxztZ9I2k6Z3MT01kSVlwdjjjzHabSXRl1V1u445a/qWAehYZKRlMWfp1YnCmsEopPot7IOXE5X9jIPp67jEQcSGwdOSyxRhS/MiRrx1wknQlAXmXV6nCcsp5p0M4pbw+tzGjVFSPUXIbegDj3VAoDS69b1suz+IDkHc03/4UwTsu91xn5T4YlozofV/eYYHdD3zDGQgxqxlSVdyCImUsnddVfLdDkbyrKcC6eo+uFxdOaey2dj81dxF3UMsvm8mTzJTMflsJUDezD/iqlPzIsuX4lT+cvRb7fGJJE2Gx/V+R4ad+LyaELh5oA1Yt9TWVFQSEXQa7ukO01PlmJOO0Wx9wE3ILmr0GG+q97FkW5mObG7RAw+2Ju7FEjncvjLP/WmLJknEViD4tICH5GlL09T+ATPN8YcnVD7Lk027bOGRg/EcErcC2UriucoBy2ftiOd6+OEFbY+COCr9owMXzO1r4xS2N2mJ7XCqeF3dVcbnQn+DNS2VxDl0umAD+XArxp+Dp63t1y5Le2CXPvAy9/KTsf/WJnBTymCNr21NK8XqpYzxr89aFmNacv9sscZcpdNddJODSTSJ3q0mfzOQ5cTXG8cEU2RKM0csQKi5/T8DX3NLo7Xtly5LX5C450ach6cTqX3dmTFVX3CyQsyUXxnL87PSYPl++X687nbO50Jfg5xdiTGQrThd9KZBzNN++iuDi1Ve2l4TRKhmi972yWxqSy6IwwPENp7OnintAF5nkbH58Ica+06O6I2+2woiK5FdvJvjRsSGO3Uzd9yZRxR2Qjkf6twh+IAvHaiWBkkp8tW7/orRNMW4bmuSdTmtryWvElwISecnoRBaZy2stvGL56N3KeTN5W5fEHrs6wXePDPKjCzEGq9n2uUI6AivfRIj/BqK39+VdS+6yF1GS6lqdLx0MSHgcyb8CfqmanJsdFKlrPYJ1DV4e7wrxaGchG+926vctS5LO5LlwI8HRq3Fd7notltPTSavGfM5Q4ebfCin+C9J9sefLW0uG5JQqgSQyJaXxjkD+DbAF6C7VTamUYEvJSEZysD/NyZtp6t8fo7POS13Qhcs0dN3+yGSO62NZxrK2rj6rxuTzAhWXvyEQfy6EuHL91dIiOaVMnva9h4SBbJbwb4Bfd0QmS/Z6SxHKinuMgjCF8uBVDJ63ZcnU6lcIVMxzGngJIX5qSJG+/sqOkru7JU2cNf8/e/f3I1dZBnD8+5ydXWNjIlTjD3YXiVdeGDWonenSmhgv1MRw4X+g8a4XEqss3HildmaX9kJ7gQlINVYwJZCIhQKioNTdhQpYGqWFkrIz2wVrd9td7LLbOe9jzpl3yAADXdrdnXPO+3yS3vTqnZPz7PP+Os/zg6loqV/LCjuBr2etbLQJnvpKMXeq6vjM2NZzvR7Qu8nMrns3J/aUHcgxYB8wld6vMSY75oCHgPviZnOh14N5L5lco3dyqq8DfxIRBU2mSSPv+PTKmI2lPsjvQWQvcPLVPdszfWyR6al7p6HRyauAbwHf99+wZ3o2YgotST6PArsRmWpUy2vSCHE9ZT6jtw3EstCM9GEn6dn6db5bqzEbLQae8svJ51XjzO2wd5ObrPjybWUXSXQWkfuBv/se0sZspLRHmsIB59yf44srizO1kcztsHeTm0BPnKqljecawO+A5yzYzQa7kLYZUw6pkwuze76SiyAna1dgV2PhyTviD2/7Xt3fKb4GGMzj7zC5c9ZXQ9qrqsdnb9ua6c23t8vNGv0txC0KPK4afaKjYEU+f4vJg+XWclF/I8Kx0+Pr21VlPeRq6t5Wr46olOLFVt8qfgtM93pMprCSIP8n6D0KzzjN53IxN8dr3QzdOlVS1etEuQn4bhYaOJrCOdFqnSR3N8bKZ3o9mMuVy4ze5nAxaJLNDwDHfGUPY9ZKMmu8T4QH8l68NNcZvW1odPIDwLch/az1c1no1mpyLwnyP6jy40g4Va/1rrDjWsh1Rm9r1CrL6bEH/Bp4xWrOmSv0ZsMFFabzHuQUJdBJbzJEc4oc9HXiz1jNOXOZYv/Z6Z2KPrUSNXO3w95NYQJ9praliWrdr9cP+YZ2xrwfSeZ+rfUO6UNO4vn/7tpWiIRRmEBPzIxVYkFf8FP4v/nKH8aslg9y/igazc1Wt+V+yt5WuEsmzrGE8KRI+tf5GuALRfydZs0t0qpA/EtR6vWxciGm7G2F2HXvZvBHEx+SKNoBugMYKvJvNVcsmflNiXLTQP/Asyd/en1hMnlboabubxVdgPT8837frbUQay2z5prAS8DdDv13EYOcIgf6zHjZIbyEyD7gCf/lkTGdkj/+s611uRyMoigzDRfWWmED3buomm7O7ffFAizYTZv6k5kHgd+jzNar5cLO+oJYt147mjaE2OKryX7DNueMX87dC3J7FOkL07uy01VlPRQ9o7eILjnRp33BitleD8f0XLN1/Kp3CfGLRQ9yQgn06epW1da0/a9+qjZnm3PBcn7zbb8Kx1U1iLsWQUzd2wZ3Homk1NwO/BD4qpWNDo7669H7EK01qlvnej2gjRJERm+b2f0lh+izoL8CjlhDiODMA4+kPfhVzvd6MBspuE2pPlhUOORalyR2AmUrWBGEc2mAoz8X3PF67YbCr8s7BTV17zR88+Rm4EaVtCHE50N+FgG44O9SjCEcblQrQazLOwWX0ds0js5Ln3vYV5G9Ftjc6zGZdeGAfwB3AM9JLEFWIQpqjd6psXtLHPe51xC9F3ja1uuFpK0yzXpARB9DOF8fL+6lmPcSbKAnTu8acai84ivJHrVgL5xkyv4X4EFxbrFRrQQZ5IQ8dX+TY1kieUDRJd/AsQL093pY5orNAwcV9qJyanrshkJ+rLJaQWf0RGO8oupkARc9lt55hpNWTTb3fMMF7oqQozNjxb/5dinBBzppsG9R1yydTzKALz7wohWYzK3XgcNplSHhiIq+0esBZYEdKXUYvvVwn2r0SVS+A+wAPmbPKFcu+jvst4M82qhVrG6gZ2v0DqIuyeKzSt9+4Crgm8CnrU585inwP99h9xfA46ALvR5Ulli26mL4lglxGm0W9HrgRn8v/lPAJlvuZMqKn6o/r/CItP4drdcqdnryNhbo72JwdEJEtIRGw/6a7Nf8t+yb/a58nz2/nnB+s3Q5CXB/fPaEE33GlZrnXv3J9uA33rqxF/UShkYnIpRNRNEwypdBPwt8xmf4ZHo/4LO8Pcv1ox3B/R9/MvIvYELQE6BnYmHldHUk2HPyS7GXc5UGb5kUlAGUqxE+Alwt8FFUP47IJh/w9jzXXpLB31B0PlI5gzCvwpwgZ/uj0rmXf/ZFOx1ZBXsx34fBmydbz0sQh4o46Y/QD4rQ56Kor9fjKyZVUY0drPTHsixIs1lK/k+o18K8zmqMMV3ZDrIxAbBANyYAFujGBMAC3ZgAWKAbEwALdGMCYIFuTAAs0I0JgAW6MQGwQDcmABboxgTAAt2YAFigGxMAC3RjAvD/AAAA//95OhSMXmHZWgAAAABJRU5ErkJggg==;" parent="CIlAjLKx_zQ3_18mQWrC-11" vertex="1">
          <mxGeometry x="80" y="31" width="60" height="60" as="geometry" />
        </mxCell>
        <mxCell id="CIlAjLKx_zQ3_18mQWrC-14" value="" style="shape=image;imageAspect=0;aspect=fixed;verticalLabelPosition=bottom;verticalAlign=top;rounded=0;glass=0;gradientColor=none;image=data:image/png,iVBORw0KGgoAAAANSUhEUgAAA2EAAADLCAYAAADnY5sqAAAABmJLR0QA/wD/AP+gvaeTAAAgAElEQVR4nO3deXycZbn/8c/1TNKFAqXtTAIFBGRRkFVQFhERRK3Q0kzI8biwHBcUj+Lyc6nIkSooxX1BPeCCiHrUkKSUTRQU5ICALELBBRFZS5OZ7pYuyTzX748UD3RPMs99z0y+79erL3gV5v5ekCYz13NvICIiIiIiIiIiIiIiIiIiIiIiIiIiIiIiIiIiIiIiIiIiIiIiIiIiIiIiIiIiIiIiIiIiIiIi1WaxC6gXPpuEe/M7kkt2I/Fdcd8VsxeRsiOJj8WZADYeY9zg3zMG2B58JVgFWAqk4EvBKhjLSVmB+RO4PUGSPElSeRLGPWGdT62K+18rIiIiIiJZURO2Hu8gR9ryMlIOJkkPwO0gYG9gZ6A5UBkl4DHgAYz5uD/AAHfbvPKKQPkiIiIiIpKRUd+E+bE0MalwBObH43YUcATG9rHr2ogKxnzgNlJuoWnNTda5fHHsokREJDxvy++D2W0YuezD7Fzr7vt25jkReceOBSqV+zC2yT6MH1t36ezMc0Qy5sWWj2M+K9sQvmjdpQszzYikKXYBMfiJEycxdszJwAzgOGAiWK23pDmcg4GDMf6TytiKF/N3A9eSS7usc/GfYhcoIiJhWE/5YS8WrsE5I/s0n+0z8lc09GqMtHIusDOeedJqaPpy5ikiQaTjcZuUaYTbuEzHj2jUNGHesct40rXt4G/FeR3hlhZmJQd2OHA4ldxnva3lTyTpz/Hmy637mcdjFyciIhnLpedSSf4NMp+9KdDMh4HPZpwThc/ccXe88p4gYeYXW5feo0UEktgFZM3bWg7y9vx3qKx5BvcrcKZR/w3Yhsz3w+0zMPCoFwu/8vbCv/mxo6fJFhEZbaxz0dPgFwcJc/uYz2hpDZIVmg2cD4wNkLSUdOycADkiUgcasglzMG/Ln+TFlpsw/yNu7wUmxq4rkAQ4AefnTM4/4sX8//OOSaPlv11EZHRJBy4EFgVI2pacfzJATlB+cusBmL01SJjZ563n6RBfKxGpAw3XhHl76+soFu7G7Grw42LXE5ftBvYlKk1Penthjs/cYYfYFYmISPXY3KVLwcNsWjc7y9tbXxwkK5RcOocwn4WeZm3TtwLkiDQWq/ETG0agYZowL+Zf68XCPXj6a+DlseupMdvhfIJkzN8HZ8YYE7sgERGpklz5m8Cj2Qf5GLwyO/ucMPyUwquBNwWKO9euXvBsoCwRqQN134R5R+seXixcCfYb1HxtgU8enBkrzPe2/EmxqxERkZGzTtaCzQ6U9jafWTg4TFbGUsLszzLmkytdESRLROpG3TZhPpvE2/NnUkkfANpj11Nn9sHsam8vXO3FybvELkZEREbowL6fAPcGSErIcX6AnEx5W+vJwFGB4mZZJ5VAWSJSJ+qyCfO21v15oHAnbpcA28aup245J2G5B7y9cHrsUkREZPhsNilm5wQJc07yU/LHBsnKgHeQwyqfCxT3O+sqXRcoS6QBufaE1QpvazkNS+8EDotdS0NwJuH80IuFK/3EidleuCciIpmxrr4bwG8MEpYyx6nTDfMDhdPAXhYgyXGbFSBHROpQ3TRhPm3y9t5e6ML8crK/mHI0amfsmHt8Zv7Q2IWIiMgwefJRIM0+yA6nmJ+efU51+Rm7j8MC7Z9zOq2n7/dBskSk7tRFE+Ydhb0Yn9yOU4xdS4Pbg8T+14uFM2IXIiIiQ2c9fffj9vNAaRf5sTSFyaqS5f/8T/AXBUjqJ+HcADkiUqdqvgnzU1qPJ+WuQEsHBMYBl3lb4cK6XWoiIjKaeXIOsCZA0kuZXHh7gJyq8I5JE8FCXTh9iXWV/hYoS0TqUE03YV5saSNNr8HRXqXQjFm05X/kZ9IcuxQREdl6NnfhYzj/HSjuAu/YZXygrJEZaPoYMCVA0j8ZsAsC5Ig0Pm/cCYGabcK82PI+8CsZnJmRGMzezqLCVXXzBisiIoMGmi8AlgVI2pl09VkBckbE21pbMM4OEmb+RZvX1xskS0TqVk02Yd6Wfzf4xdRofaOKM43Kmqv8jN3VDIuI1Am7ekEZ+EKgtHNr/nRdq8wGtguQ1Ec/Xw2QIyJ1ruaaHG9reS9ml6D9SLXkBFas7PZpe42NXYiIiGyl3NivAk9mnuNMYuyYj2SeM0ze0boHJO8ME2bn2bzyiiBZIlLXaqoJ8/b8dMwvRg1Y7XGmMX7Z5TqsQ0SkPljnU6vAPxso7sPeUdgxUNbQVNILwccESHqYQt/3A+SISAOomSbM2/OH4fY/QC52LbJJb6bY8pnYRYiIyFbKlS8DfyhA0gQq/FeAnCHxtpaDgI4wYfZJu5T+IFkio4U17sP/mmjCvGPKzrhdA0yIXcsIDAALgEeB+4A7wG/EuRXjHuBvDC4LWR2xxirw//L2/FtiVyEiIltmnVSAcwLFvds7CnsFyto65l8kyGcdu4uevp7sc0SkUUS/ZNGPpYlK8jOgNXYtQ/BnsFtxfwD4O008wqTS41v7BMw7puzMgO1FYnuS+ksxexXwCqiT4+DdLvX2KfdZ16K/xC5FREQ2z7rL87xY+C3w2oyjmqlwPlATD+q8Lf8a4IQwaeksAw+TJSKNIHoTxuT854CjY5exBUuBKzH7Jandaj29fSMZzDoXPQ08Ddzy3O/59Knb0LTmCEiOw3gzUFtPE19oWzzp9OlTD7erFzwbuxgREdmCNJ1FktxB9vt63+wz81+yueV7Ms7ZLAfDbE6YNJtn3aXfhskSkUYRtQnzUwqvJuWjMWvYjAHMr8Xtx2w/4Rr74WOZLiNc18z8Zt2vc72t5UgSfxtubwGfnGX2MO3PmIELgJo9EUtERAbZ3EV3eXuhB6eYdRRmnwfekHHO5hUL7cARAZIqWBJquaeINJBoe8J8+tRtSPl+zBo2oR/8Coz9rKs807pLV2bdgG2M9fT93rpK72eCvQjjQwzuN6st7h/0Uwqvjl2GiIhshdQ/CQEOjjBe76e0Hp95ziZ4Bzkg1KmQl1nXwhAHn4iMVjqYo+qaBz4L7B0tf0Mp2KXQtLd1l0+zrtLfYhcEYFf0rrSu0tfJjd1rXTO2KHZNz5OQ8j3dHyYiUvusp/ww5mGOUE/TOdGuNEnz7wT2DZC0ikolVLMnIg0mShPmbVP2BT87RvYmPELix1t333us+5nHYxezMdb51KrBZmzNPoPNYs3Yh3HLPhS7CBER2Qpp7jwgxGXCh9HekvXSxw14xy7jcQt1VP7X7KrF2V+GLSINKc5MmCVfpTZOAhwAO59VE/e3K8s3xy5ma1jn8sXW3fcejBMZPPI+PuNTNXtJp4iI/Iv19Pbh9tUgYe6f92MD7z1P13wQ2CXzHGMJa9Z+MfMcEWlYwZswbyu8kdgbdgctwtM3WHffp+36R9bELmaorKt0HbncoTg3x64F2I7UtCRDRKQeNPkXgd4ASfswKf8fAXIA8Jk77IDbx8KE+Wft2mVLgmSJSEMKPxNm9pngmRvUwHwseaX1LPpN7FJGwjoXllhSOgHjoti14H6Gt7e+OHYZIiKyedZZ+ifGBWHCbLZPn7pNkKyk6ZOBThN+jFU7fCdAjoi4DuaoCi/mTwR/ZcjMjfg1CUdZV++jkeuoCruZAesqzQJ/L5BGLKWZNP1UxHwREdlaU0qXACEOoJpKU/8Hsg7xGfmpYO/POmdd2qfqcQWNiNSWwDNhdm7YvPW430Ru7MnWWfpn1DoyYN3lS4AzidmIGad6x6QXRcsXEZGtYpfSjxHmPdmY5R3bZztD1WSfAULMuN3PgeWfBcgRkQYXrAnztpYjCXNx4qb8L0020zqfWhWxhkxZd+n7GO8mXiPWTCX3n5GyRURkKLpKncDvAyTtQGXMJ7Ia3Nvy+wBnZDX+C8PsYzY76qoTEWkQIWfCMl+OsEnGPUxI3tiIM2Drs67SD4CIR8Yn7wq2/l9ERIbNwIFZgdLO9pMn75rJ0IldCEFOYfyt9fT9OkCOiIwCQZowL+Z3wvyUEFkbUcab2u2K3pWR8oOz7tI3cX4QJ90n07z2rXGyRURkKKy79DvgugBR42hqqvr9XV6c8gqctmqPu7EoUg9z8qKI/J9EB3OMjCVvJ869YBXM3l6rFzBnavXE94HdFSfczoiTKyIiQ1ZJZgGVzHPc3+FtU/at7qC5ORDiQ5r91OaW78k+R0RGi0DLEf3UMDnrx/Ip6+q7IUp2ZIMnNw20A+UI8Ud5e2HvCLkiIjJEdlXvfOCKAFE5LDm/WoMN3jvqx1VrvE2ztaScl32OiIwmma+h9vbCITgHZJ2zEXfTVPpShNyaYd2Ln/Jiy0fAfxQ6GrdTgU8HzhWpOu+YNBHGTCbFSNKEfp8IViGXLAcgGVgD4xc38qE/Mgrk0nOpJP9G9icMtntby5HW0zeiA0EcDONz1Spqs4xv2dy+vwfJEgnET5w4idzYMTTbBBJbYZ0LS7FrGm2y38jqdGSesaEUS95vnQGWV9Q46+67wov508BeFzbZT0FNmNQBn7bXWMYu3Z/EDsb8pbjtgbE7zq7AZCo0/evA0QqQrFv55M/9XgKswYuF1UAJ5zGMf4A/iiUPkvj9vKz0qE5Uk1pmnYue9mL+YrCPZx/mc4DXjGiM9vy/47y8OgVt1jLS5jDNnkiVeUfrHlTSQ8H3BdsP2BPYCawFfAw4uEOFy4B3RC531AlxmtDMABkv5HzTunvvDJ5bq3J2FhXmA+MCpu7rHfmXWGf5r1kH+cmtB2CVMVnnZGfdrMpAfz8DlX8yedza0XSQTGg+fWqeMQOvIfVXYxwDyw4AG/xZ6M81WMMaehywK8auwKsHz57zwcbtgcI/vc3vxLgV91uZuN3t9sPHVlflP6gGeMfk/ehPxseuY0RylkKyjNWrl/CKZctGZdOcDlxI0vxOYErGScd4e8sbhrtdwM+kmbJ9ttpFbZQxx7qfXhQkayO8Y5fx9K/eL9OQXNNq61r4UKYZW+AnT94VS1oyDbHck9bT25dpRmQ+Iz+VZk7C7TjgaCrpzoP/ZP1tk8N7k4vC2cln5g+NV4BVbG7pj1mMnGkTtu7ujipvwt2iMqsrmoF5HussPeLFwpcg0MWcz0mTGcAXM8/JpfPAds88J0ueQi43+Gtl+tysylM4T2E8ATwB/mdy3MPLyn8blR8QR8Db8vtgyUzw6dB/JE4u8HlL22J2PHA8ZrB85Upvz99IyrU0Nc2t+2UgleQXJPay2GWMiAOkMHYMPFDA21iO8TDYPXh6D869LC3fbzczELvUrNjcpUu9mL8QLPul/O5f8Nn8elg/y0qFMzH2yqCq9S1gbfM3AuRsWjrwYhK7O9uM9E9A3O/fXO7jwPszzfD0g0Dcr2cGvJjfCZJT161AOgwfxrub13RXdhqJnRYxfykwKYuBs50JSzgpwpf163b94uXBU2tdbs1XqYz9ILBdsEz3kwjRhDWmccBeL/ygYc/NqqzwIvfhfif4LyksutUupT9WobXKp0/N09z/FrC3g7+yxp78TcDtZIyTqVS+7cXCDeA/JTeuR3vLaoSxPXAY+GGYDT5InlJY4kW/BqOTReXrG7Ihy5W/SaXwPuDFGScdyPz8m6H8P0N5kZ/aOoGVaagHip+2qxc8GyhLZKs5GO2FaTjvBaaBh1jZJlWW7emIbsdnOv4GeSwn7b84aGadsM7li8G/Ezj1CD+1dULYzFFhO+AYzD6GJTdRLpS8vfALb2s5zTsK28YuLjZvLxzixZZLaO5/AvjGYANW05qAE8F+QmXNM15sucTbp7w0dlGyEc4ksFNxm8fkwhNeLJzvHdtPjl1WNVkna8FmBwlz+5x3MLSl5CsrHwF2zKagF/gLi0uXB8gR2WrewRhvL5xOMT8f51pgOmG2FkkGMmvC/FiacI7OavyNMi62uUuXBs2sJwPJV4CAT/V8DKv8VeHyRq2JOB2YX06FBV5sucSL+RAb1muKtxWO9rbCb3HuBT8TqMc9ShPBz8STh7xY+Fn171SSKtoJOJfK2Me9vTCnoZqxA/t+AtwbIGkPKi3v2tp/2adPzeP20SwL+hfzjzfkTKfULW/PT6dSeAjnh1Dl5d9WW0tFRovsZsLyLa9ct5wjlH48+XrAvLpj8/p6scDH1adp2NlQ2W6wAbF7vFi4y4v5GbELypq3tRzkxcIvMW7FODZ2PVWSAG/GkvlezP/IO6bsHLsg2aRtcT7BwNh/eDH/IZ8d6v7N7NhsUszOCZPm5/mM/NYtkx8zcE6QzxXOrdZVvjrzHJGt4DOnvNKL+TtwmwcZ7YUczj4yGbHs3izSwLNg2PWNfupNVXgu8PIKOypsnjzPK8Cu8mL+Dm/PT49dTLX59KnbeLFlNuZ/AN4Qu56M5MBOpZI87MWW2UNeuiXhGNuDfZUHCreuO5Sqrg2eXOg3Bohqock+uKV/yYs77Yb7+wLUAzmbFSRHZDO8Y9JEby98nSS5HezwTMM0ExZFhk/s/BXZjb0R5j8JmlenrLv3DpzMj41/npf7sVqvHJcdjts8LxZ+5e2tWW+2D8LbW19Hc/9fwc8DmmPXE8A24OdRKfzeO/IviV2MbNZRmN3rxZYwDUOWPPkoBDmJ9ePe1rr548l94DPA2AC1dNmVfbcHyBHZJG9vfR2VpodwzgZyseuRbGTYhFm4zfDOcpKxWjqwtcI2rNswqaW+j65uHCfg6YPeVviEd9TnD3U/liYvtszG0xuAXWLXE8HLqdh93l7Y4syBRDUB/FteLHyvnh9CWU/f/bj9PEDUdiS+ydknb2vdH+PtAeoYwNP/CpAjslHrvceFXIaumbAIMmnCBp9o+YuyGHujjC4d6zwEadMVhPyGMz8sWJZsyXiMOVQKv6u3WTGf0dLK5MKt62a/6n7fzQiMx/maFwvf0/LEmvdOJheu2eo9T7XIk3OANdnn8J+b/Jlk6ecJMhvg37WeRX/OPkdkQ95R2JHJhd9Feo/TnrAIsvki5zggk3E37brAeXXN5i58DPhLwMj9A2bJ1jkK9z94W8sJsQvZGn5y6wE0+R3AEbFrqSHvpFL4jXfsWIhdiGzWG2hKbvSOSRNjFzIcNnfhYzj/nX2SjyFNP73B77a3Hg6clH0+K8nZZwPkiGzAZxYOpuJ3AEfGKiFS7qiWTROWpvtlMu4m0uhvvjlgXqMIseH6OVqOWJN8MubXe1vhE7Er2RwvFo4hl94G7B67lhr0KgbSm72jEOLeJBk2fyUDTXN92l4h9jRV30DzBcCyzHOMU72t5aAX/F6aziHEU3q3L1tnaWHmOSLr8ZmFaSTcBrZb7FokrGyaMPOQTdj9dvWCcsC8xuDJTQHT1ITVrhzGHC+2/LfX4HIEb8u/BriWwQuqZWPM96PCLV6cPBr3yNUP41jGLb+sFr/PtmTde+wXAkQlGP+ajfL2/PRA106UWD3w5QA5Ii/gba0nk9ADbBO1EDPNhEWQ0UyYvTSTcTfKfhMuq4H4mluASqC0qfW6FGf08PdQLHy3lj4getuU4zD7JbBt7FrqwD6Qu8mnT83HLkQ2w/wttLXMjl3GsOTGfhV4Mvsgn+Ft+dcM3rcWaHmg8xm7fvHyIFki63hb/m1Y2kWYUz+3UIzXzHv/aJLVTNgemYy70az0lmBZDcTmLl2K8cdggf1N4f5MyHC9k/bC12IXAc+dhpZ0AeNi11JH9qG5/zo/tXVC7EJkM8zP9VPyx8YuY6gGD7/yME2R2QXc3/J2nIMDpD1KU+m7AXJE/sWL+RmY/ZBaOX5eM2FRVL0J8zNpBgu3LGYgDddINJqU+4NlWaK1zvXAOduLLVE3p3tx8i5Y+ktgh5h11KlX8Gz6o1qa0ZQNJKR2WV2emJgrX4bbnwIkHY35xQFywPikdbI2SJYI61Z5YL+A+r2+Qqqj+jNhS1p3IVxnv4yrFj8VKKvxmM8PlpWkuwfLkhHyc72YnxEl+UyaIfczwt6P0licIm0t/y92GbJZu9Nkc2IXMVTWSQVLPxkoLkST+ge6Sp0BcqQWJPEfTnlH6x5Y8nNqYQmiRFf9JswrIWc8HjIdqzl8SS5cE6ZTf+qJQXKZF3cK/zUrF74MvCp4bqMxv9DbCkfHLkM26yw/peWo2EUMlXWX5wG/jV1HVXg6S58hJBSfkd+OSuVqoPb27rq+D2KofhNWIeBRyRawiWhAZg8Ey3Jag2VJFfhkGPipHxtuuYS356cDHwiV1+CaMK7Q/rCaZlTS+ryXKk1nUf/Ny7XWs0gHe0k4TXY5WG2eFm3xZwlHo+o3YWbhLg411832I2CdC0tAoOP905YwOVJFRzG5cFaIIO+YNBG3b4fIGkV251k/P3YRshlmx3uxcEzsMobK5i66C6Mndh0jkJJybuwiZPTwtpb3Am2x69gkzYRFkcXpiOE+bKcW4Ljchvd0mBhTE1aPjM8EOfa80vQloEbvubK1YE8At4PfiHENRidwHfiNwB0Mfh8NRC1zY9zP9uKUV8QuQzbD/dOxSxiW1D8J9McuY5h+ZHNLOtRLgvC2KftiXsv30K3GeCR2EaNRBkuNrBBslUIO3W4/cs8ABwXIURNWj5xJNPefR4bLBNc1Ce/MavwhSoF7cH6F2T2Y3U9X7z+2Zt+Izybh/vxeJHYw+CtwOwE4kLgnFeYg+ZrD0dr7UqPMjvf2/GHWVb47dilDYT3lh709/33c3hu7liFaTW7gvNhFyOjgs0l4IPkusS9jXp+xBLiR1K5h9cBc3ZMXRxb7PcIduzuQLAiW1bieCZRT7xfuXoexMpORnQTIg+ch2Rt8TCY5w/deb5vybetZVPXlv4NHqSdfIfqR6v4Q8D0891Pr6e0bzgg2mxTKDwMPA78A8I4pO5Mmp+K8A9i7evUOyVG0txTp6uuKlF8dzs0klEY4xjhgCrAPtbQ5Pk3eAtRVEwZAmjsPS99GyPf9EfNvWOeSJ2JXIaPE/Py7qK3Dpu7G/CtMKV9pl9bJTLbzVxLCnWGwYX42n/3IogkzHxfseWtzU2+gpEYWqgkbHygnG7nk/dbZ+4+sY/yM3cexbOVhmL8W7O0MfliMrYkk92HgzKqPXCy0A/FO8TPm437uuhPfqj9856KngTk+my8wv3AKzmxg3yyyNsv9Qj+Wq+zmGlwyubWM86yr9LtqDeczW/bEOAHztxHzzyCA+b/5bD422MjXD+vp7fNiy9fA/yt2LVvFWEKy9qLYZcjo4B07FkgrtXAVRYr51bh9xbqr9zM0GPOrrKv8idhlZCGDI+oZV/UxN26pdT61KlBW47JgTVhu8A4o2Rz74WOrraf0v9ZdPt+6Sy8BOxr4Zey6cH+bd2w/uerjGp+q+phbZzXOLJLSIVk1YM9ns0mtq/QLFpcOxJkFrMk6cz17MyXfETizptncvr9bT99/W3fp1aR+GHBdxHJ24YE6vVIg518A6uOBqPvnrHP54thlyCiRVs7DmRS1BuMeSF5lXeWZddmANbgMDuawQE2YLwuT0+BSC7cOeGE+VIPeMKy77zbrLk3DkhNw+1PEUrahMu5d1RzQT2l5Pc7B1Rxz69gTmB1uPaWLrJNK0OSbGbCe0kXgRwGBL5o3XeC8CTa3fI91l04EKwKLIpVRuyenbYZ1lv6JcUHsOrbCU+TG6QRWCcJntuyJ27sjlrAI40McUHqldffeEbEO2YwMmjAPtOzMQj9JbkyJrw6WNbZJTdgwWVfvjTSNOQzz/45XRfo+7yBXveH8o1Uba+s9yEB6pHX1xVtfDlh3+V4G/HCMcHcdOof6Kfljg+XVIevu66FSOQR4MEJ8/Z5iOaV0CfC32GVsnp2j1TMSTOIXRNvf7VxO2r+XdZW+Xm9LnEebLI6oD/VBO1zz0Mg8YBO2dq2asBGwzqdWWVf5LIw3E345G2C7USlUZYOxd7TuAbyuGmMNwSPgr7d55Zo40MfmlReQ5I4POsOZJlWdzWxEdtXiJ1mz9hjgvsDRB1f1IUdAdin9WA3fu2XM58C+n8QuQ0aHde9vp0SIXoPxIespnWFzly6NkC9DVM9NmGbCqiFJwjVhSVLfh3PUCOsq/YLE3wisCB/u06syTsVPJ+yJiEtJ7Y3WXQ61B3KrWOfCEp6cSLAlcD7TOwr1flJp5uzaZUvI8SYg5F2UE2DySwLmVVdXqRP4fewyNirl45oRkGAq6UfJ5vTxzbAnSNNjrKv09bC5MhL124S5ZsKqIg04E5YkmgmrEruyfDNwEqEfRrjNGPEQYOBvr0Y5Q0g93eb2/T1s5taxuQsfw+xtEORD4gQGrBggp+5ZZ2kh2Fsg4L7BgeSQYFlVtu4eulmx69iIW6ynFP9wIxkVfOYOOwBnBI79X9K1B9ncRXcFzpURyqIJG5vBmBvha8PkNLg0DdeEVSpqwqpo8KSj4Bt/9/H2KS8d0QjFKYcBe1annK3gXB7iBMSRsK6+G8AvCRKWuE5J3ErW3XcbRrh9mAmtwbIysO70tZinTK7PsSh7T6UWuWe/+iI35i0EvZjZb2RC8kYtP6xPWRzMEebyN7PAU70NypKAG0cTNc5VZt19VwDfDJz6phG+/o3VqWNrolgCY+rjVMABPkGIe/uc1/q0vQI9LGsAa5tnQ3aXdb6AJzsEyclSJZlFyNnDzfu5dZXr7xJsqV/u7wiY9mdWpe12RW+Yn09SdRncE2aBZlZcsyrVEHKJYC7grNtokhv7CeDRYHlurxzZAAGbMPevWs/TsY4cHxKbV16B8fkAUROYsKI+76SKwK5eUAYuCxPmE4PkZMiu6p0PXBG7DqCfHPVxibQ0hHWrRA4LFLeUHDPs+sXhrhmSqqt+E2aB9mqZ6UluNaQBlwj6GB0PnAHrfGoVzn8GjBz2m8y69fIjbOK22gpWpfW1STkpXUqQ2bBKuEa4IaQ/ChLj1P9MGEAuPRd4NmoNxness/RI1BpklElmBosy/4T+fNe/LJYjhmnCPNgpjI3NQl2uDQxUNBOWkXUbz38dKO7F3rH95GG9MjfmcIKdGmU/rbenhNbJWvGNqwQAABnASURBVJwfZB7kdmTmGQ3Euhf9gTBLRRvifc06Fz0NfnHEElbQbyFmlUX+j1Od04O37G4OKH8vUJZkKIvliKFmOzQTVg0hm7D+Ac2EZcn5SqAkY2DcocN6pXvAC2nth+GyqihJsm/C4BA/NvQRynXOuTV2CXUlHbiQYFcvrMe4yOb19UbJllFp3YPJw8OE2Tm6cqEx1O9yRJgQKKexeRrw/+Nk3e2WpZ7SDQEv/j1omK8LtRSxlwN76/K4XuvqfRS4P+OYbZjSsl/GGQ3G/hK7gnoyeFqbXxgh+hm2Sb4WIVdGs3TMqyDIZesP0tN3Y4AcCaB+lyNCXk9yqyHZKVBQatc/oiYsQzZ4HHOY47TNdxvmK8Pcg+T8sq6fFDrXZJ/hL888o6GkT8WuoO7kyt8k5KFBAOazdVqcBOcEOuzIL153J580gAyasFCnI5Kwfb4lUFYjC9WEaT9YCLmBq4LkmO861Jf49KnbADtnUM2GzH8fJCcrCbcHSNk7QEbjsEDH1DcQ62Qt2Oxggc5fWVQOsZxXZD12VICQCp7rCZAjgWRxWXO4N6okWAPRyHYMlBP3pKxRwjqXPIExP0DSLkN+yZiBvYDsL8sc9IdAOdlIx9yZeYapCRsaq5W7r+rLgX0/Ae4NkpXYLLuZgSBZIs9nvCxAym3W09sXIEcCyeBgDkpVH3NTTE3YyPnUMDGmHxzhXJd5gjPkmTBS9sqgko0b4G/BsjKw7m6zrH+WqgmTzNlsUpw52Sf5Q9bVNzf7HJEX8hn5qTiTMg8yvynzDAmq+nuqEi/hoR52qwmrgjD/D83DNeejnXNfgJSCT9tr7ND2+aW7BZoIW0Slv8lPnJj9m2K2HgMKmY3u7J7Z2CLPZ17O/HvfTe8xEkfOXxrmvc3uDhAiAWVwsEXSF2zPoAV8st6AfEZ+OyDQTBg6LjgUsz/jmX8PGk3PbgcMoQmzUHs4pzB2zOJAWfVsB+9gzOC+HRERGZ7cLkE+9ya5+l5mLxuo/nLENOCHbbMDgmU1olyyP6H26BhajhjKs9v/FQLsi0hWjx/Sv28ZzurI8KzJ52OXICJS15Ig2zqWWudCzfY2mOo3YUnlyaqPuSnO/sGyGpGlBwYMC/fnYpRbt0Qw+5mgJBlaE4apCas1uURfExEZHTyjh85OaybjPp+hz1ANKIMmbPzjhLvDYFefucMOgbIaT8iZRPPHgmUJ4Kuyj7BthviCidkUIsOWS+t935yISGzbZZ7gasIaUdWbMOt8ahUEXJKYjAlxLGhjcgIu50weD5clYNlfCWA2xJkwH5dNITJsFdPXRERkJNzHZh9iS7PPkNCyuCcMBk/1CsMIcUFew/Fpe40FDgsW2K+ZsKBsKAdmDFMuHeIbj43JphAZtkRNmIjIiCQWoAkLsLpFgsumCXP+msm4G83y44JlNZLxS48ChricbJiMJTavT6cjhuRk/6ZQSYbY6LmasFqTpmrCRERGJpd5grE68wwJLpsmzOxPmYy7ccd4B/pwN1Rux4fL4qFgWbKOZ99g+xCfzLllcCWGjEiQJ7giIjIiTn/sEqT6MpoJS0M2YdswUHhlwLzGYIRrwgjalAsAQ92vNQzNQ2zCEt1HVXOyOi1MRESqxyzUgXcSUEZNWNODmYy7SXZC2Lz65idOnETI/WDumgkLyM/YfRwwJfOgtenQDv9wz/6wEBEREZE6kEkTZnMXPgYBL+c1f0uwrEYwZuybgYBLw0y3vIe0YuW+hFijno4b6nJEbSwWERERIbvTEcG4J7OxN7S3t+fDzezUO/NTA6b10zTmjwHzxH3fECkMbLNiSK9IUBMmIiIiQpZNmNtdmY29Mam9PWhenfKOwl7AkQEj56+7O06CSV4eIKTPrn9kqMfg68+BiIiICJk2YX5HZmNvjPHvfmzIJXZ1asBOhZCb8f3OcFkCgPtJAVKeHPIr3FdmUIeIiIhI3cmuCds2uRUs5GlorUzJdwTMqzt+xu7jMH932FT7Tdi80c1ntuyJ8ZIAUUNvwgzdFSciIiJChk2YXdG7EjzsgQxpcq7PzrCxrHcrVr4H2ClgotPffHPAPEnSmYGSnh76S+yp6pchIiIiUn+ybVjcbsp0/PWZ78f9rdODZtYJn7bXWJyPBg017rerF5SDZo5igw8g7L1hwuzxIb8mtaHPnomIiFRDonsRpbZk24SZXZ/p+BvNTD8VPLMejF96BrBL0Ewn/Nd/NJvfMgPYK0hWzu4b8musoiZMREREhKybsO7eO4HQS5Be4W35fw+cWdO8Y9JEsE8HD07TucEzRzP3D4dKYtXqe4f8qlyiJkxERESEjC/sNXA3vwYPtETqX8H2NT9x4g127bIlQXNrVdr8RfCpgVMXMHeRLmkOxNtaiuDHBIp7ZFjfWy8r9fFAYQ0wtvolbdS9GB4oq075otgViIiIjEbZH+luSQ/uYZswaGVc8+eBswLn1hxvKxyN+7siRM819AE4BJ+R3w7zr4cLtLuH8zKbTepF5gOBLla3s62r77YwWSIi9cpzsSsQGY2yP0nQ+m4CFmSesz63M72tcHTw3Bri06dug3EpQe8Fe05yRfjMUao5+TIh9/tZOoKL2O2e6hWyBe66skJEZEuMbWKXIDIaZd6EWScV3H+Sdc5GJBi/8Bn50MvwakdT/7eBfSMkP7xuP6BkzIst78MD3/3mXDf816bhmjDj33RlhYjIFu3kZ9IcuwiR0SbMB5Sk6fIgORvaiZz9bDT+cPG2/IcxTo8SblympYjZ8/bW14F/LWwof7We8sPDfr0RrgmDnXgwH2qfnIhIvWpi0Y77xC4ic64j6utSA3/dgjRh1rXwIZybQ2RtGM6rKRe+EiU7Em+bchxmX4gUv4Y0+UGk7FHDi/kT8XQehH7A4PNG9PJc+UFgTXVq2QoVzg2WJSJSr9L01bFLENkos8mxS8hKuKU6Zt8IlrWh93uxMCo+jPnM/KEkyZWEOHRl435qPb19kbJHBW9rOQ2sBxgfPDxnV4/k5dbJWuCOKlWzFYF2vBfzrw2WJyJSTcnAQJggbwuTE5FOy60+t9WZZxgNu60oXBOW65sHPBYsb0Pne3thVsT8zHlby5GY/QZnUrQijG9Gy25w3lHY1ouFyzC/nOAzYAA8hpVuH/kwPqJGbujsfI9yOI2IyEjl1gaJMY734k67BcmKpYGXtUVjvjTzDOelmWdEEqwJGzygwy4KlbdRzoXeVvhE1Boy4qe0HAX+S4ztI5bxS+sq3Rcxv2F5MX8iFe4FzohWhNm3rZPKiMfJ2VVVqGYoXkV7PuzhJSIiVbFqWaCgHAx8NFCWNAzLvgmDPbytdf8AOcGFPTms0Pd94s6GgTHHiy2XeAdjotZRRd6efwup/zpyAwaWzI6a32B8Nomf0nq8txV+C3YNsHfEcp4lWf39agxknaVHgL9UY6yt5vblRv0hLiINrHP5EsLto31vQ/+c1HLE6rMgTRiYnxIkJ7CgTZhdSj/4nJCZG+dnUin82ttaW2JXMhLeQc6LLV/C7acQ/Z6Pa61Lx9KPlHcUtvW2Kcd5W+ECHsg/SpreiHFs7LrAfmydyxdXbTgPvSSRbbF0rs9oaQ2cKyIybAaOB3t43YSllzbsidJajlh9Fe8NlPQBP3FivK02GQl/eEO+/ANKLWdjvl/w7Bc6BvM/eFv+NOsp3xK5liHz4k67MdD/fcyPj10LMIDlGnKZ579U0ou9vbAyk7Hdm8EKQAsVXowlucF/UDPvF/1Y5atVHdHtpxgfq+qYW7YnTelNPqPleJvXF+qNQ0RkZIz7gJcESjuSRYUvQemDgfKknjWX/kSlsAYYm22QT2Zc8zkQ/HNDpoI3YXYp/X6KnU3qN4bO3pC/CLPfejH/Y3zsh63n6UWxK9oSn03C/Py78IEvYbZd7HrW+Y51LXwodhEZe1N2CxlqptnaOOM71rWoqssHbW7pj95WuBUj8LHI9jKa0ju9vWWGdfU9EDZbRGQYzO7F/d+D5Tlne3uhz7pKnwuWKXXJOlnr7TyIc2jmYW4f8WL+Vusuj+yqnBoSdk/YOnZl701gtfI/0cBOxdbO92L+rT47zv+TreFtLUfyQP523C4BaqUBW0RuzezYRUhGjCWkYz6bydgJF2cy7hbZbrjf4cX8h2r5+11EBBhswkJzLvC2woX6GSlb5HZ3oKQE7MdezL88UF7m4n1zDaRnYSyJlr+hncB+wgOFv3l7/kw/Nto9WxvwYsurvL1wNea3gx0eu54XMP9AVfcKSW1J+a/MZoinlHqApzMZe8vGg32V+YV7vK3wRh1hLyI1a9Xqe4FA94U9jzGL+YVrvJjfKXi21A/zuwKmbQf2O29vaQ+YmZloTZjNKy/Aa3Jt54txu4TJhb94W8tHvWPKzjGKGLwTquVULxZuBv9fnJNi1LF5Pte6yv8TuwrJzG0sKV2S1eCDB/Xw7azG3yrOwRjXUyw87O0tH/OOHQtR6xERWY9du2wJzm+ihDvTwP7sxZaPe0dh2yg1SG1LclcT9iHBBNw7va3wfS9O3iVgbtXFnWbuLv0AuDZqDZu2J+ZfpJI84cWWm7y98I6sGzKfNnl7b89P92LLT6jQC/4j4DVZZo5ALzk7K3YRkhVbDE1vs5sz/sE6Ifk68WbDnm8v3L9ApfK0Fwu/97aWL3uxpc07puys5TgiEl3CzyOmTwS/iJQnvJj/tre3vs6nT419IrPUCOtcWIrwkMAw3gG5h7295VKfWZjm0/bK+HCQ6ou65M7Avb/5DJr77wV2jVnLZiTgx+EcRyXBi4W/A7fi/I7E55OsfXQ4y/H8jN3HsWL1nqTpS0g4GvwYnINxctT+VRYVkuRt1tm7MHYhkgmH9D+su+/xrIPsit6VXmz55LoHDrWgGTgC8yOAj1BJ4IHCgBcpAQuBBRjPxi1xPamfaz3lh2OXISIZWr22h7FjvwMe745TZxLYWXh6Fs1pvxcLj4E9Cb4SY/UIxz6kOkVKJD8DXh8hdzzu7ybh3YxfttqLhadxFpBQvc+nzkrrLv1H1cZ7nuj7nuzqBWVva3kz5rdAXdxNsSewJ8YZuEFlLN5eWILzd/Cn8GQVxgpgBeaDswhuO+A+joRtcFqAPVm+cmcGO/k66LnW5+cPHq4iDcntfOsphTs4p7vvxxRb3g/+ymCZQ9ME7LTu1yG19/2aVPf6ABGpOXbtsiVeLNwATI9dyzrNwN7gewP18TnGE+39zYr392DN3wLGR6xiHIOfz/es8p/HpUBjNmEA1tP3ey8WzgK+F7uWYXEmAYeBHYb583////6mLputjbqSA8vn0x27DMnIN62n77yQgQbuzocwbkMHZIiIbFySfJ00rZUmrP5Y2hifwmqQzV261NsKl2LofrkhqJm9DtZd+j5wYew6ZLP+QH/z6TabNHYhkonv0x3ngk7r6fs9Zl+LkS0iUg/syt6bMO6JXUfd0kxYtpqYAzW2XL/G1UwTBkB36VNArewNkedz+xP9zW+yqxfoG6wh2aV0l95tMedrt9vmHEAXKIuIbJJ9KnYFdUszYZmyztJC4NLYddSTmmrCDJxc6R24/zh2LfICf6OSnmBXLyjHLkSqroIzy7r73hO1AQPsh4+tJs2dDOjPmYjIRlhX3w3ADbHrqEuaCctejotwlscuo17UVBMGYJ1UWFL+DwZPWpHYnL8y4MfavPKC2KVItdli3KZZT+mi2JU8x+YufIzE3gb0x65FRKQ2Nb0HWBG7irqjmbDMWWdpIYnX4h3ANanmmjAAu5kBuktvBfty7FpGuT/QlHu1GrCGdDtmr7Cevl/HLmR9dmXfr8DPAO09FBFZn3U/8zjog67UqK7yd4Ffxi6jHtRkEwaDSxOtu++jwDk0yrmC9cS4hgnJa61zYSl2KVJVq3BmkSsdY129j8YuZlOsu/xT8PehRkxEZEPd5UvRB92h0XLEIAa3FqXvYvBod9mMmm3CnmPdpQtxnwEsi13LqGF8g6Q0067oXRm7FKmqX2PJ/tZTusg6qcQuZkusu3wJ2BnAQOxaRERqiYEz4O8Enoxdi8j6rHPR05i9Cz1I3ayab8IArKd8DZ4cDTwSu5YGtxLzt1pX6YP18CFdtpbfifkM6y69vpZnvzbGuvuuIOE4oDd2LSIitcTmlRdguWloxkFqkHX1dWFaNrs5ddGEAVhP74MM+MvBr4hdS2Pyh/DkCOsq/0/sSqRa7K7B5qt8hHWVr45dzXDZlaVboXIY8IfYtYiI1BLrWvgQibcBa2LXIrI+6yp/BefrseuoVXXThAHYvPIK6y6fhtmp6MlPtaS4fYVVOxxqPb0Pxi5GRmwF2KXgh1p33+H13Hw9n3Uvforc2NfoIYyIyAvZleWbgdPB1sauRWQDB5U+ovfujaurJuw51tX3Y3LsC1wZu5Y69wjux1lP3/+z6x/RU7R6NXgnx5UYZ5BjqnX3vce6y/fGLqvarPOpVdZdPg38JLQPQkTkX6y79HNI34geUEuNsdmkdJdPB/tM7FpqTV02YTB4F4F1lzrAisA/YtdTZ1ZinMuqiftbT/mW2MXIkK0Afof7F/H0eAqlvHWXOqyrdLl1lv4Zu7isWXf5WlZV9sf4Btr0KyICgHWXf4vljgZ7InYtIs+37sTz2RjvRPeA/ktT7AJGyrr7evyM3a9nxcoP4ZwDbBe7phqWAj9mwD85ePeXTp+vYWuAJ3GewvxJ3J4A/zOJ38MBix622aO7+bDrFy8HPuintPyc1C8AXhu7JhGR2Kxr4UM+I38kObsM4/Wx6xF5Pusq/cDbW5/A08uAXWLXE1vdN2EA9sPHVgNzvG3n72L9HwD/EDAxdl01xDGuBT5tXaX7YhdTl8xnUCG7S6tzuSV4UmHNs8uZPG7tZq8H6MqsirpjV/bdDhznxZZXAZ8FPy52TSIiMQ0+ZOUN3lboIOESnEmxaxJ5jnX13ujTJr+M8U1fBH83MGrvb2uIJuw51vP0ImC2d+z4LSrpB8DfCxRi1xWPrQX/GWZftq6+B2JXU9eS3IPW1Rto2auuxBsq6+67DTje26YchyXvA5sOPiZ2XSIisVhPqdOLO90FA98G3hS7nuiS0fthv9asW83yHm8vXIVzMbBH7JpiqNs9YZtjnQtL1t33aXJjd8P9TKDhDinYggU4n4N0d+suna4GTEYL61n0G+suncKaNTti/h5Af/ZFZNSy7mcet+7SiZAciXEN4LFriiYdxf/tNcq6SteRL70Et9MZhXcBN2QT9hzrfGqV9ZS/a92lQ0k5BPgmjbsRajXQg/t0Fpd2s57SudZdfiZ2USIx2LXLllhX+VLrLh2E8XKMTwK3AAOxaxMRCc26e++wrtJ0LDkS6GE03iummbCaZJfSbz19PyJf2g/83Rh/jF1TKA21HHFzbG7pj8DZ3sGHqeSPwawdZwawa+zahs1ZjvEr3LuocK3NK6+IXZJIrVm3D/I+YI5Pm7w945peR5IeScohWHII+OTYNYqIhGBdvXcCRe+YNJGB5pNJvAO314+K5duaCatpdin9UP4e8D2fuePuWOXNGKcD+8auLSujpgl7jnVSgfJvgd8C7/e2Kfti9gbMjsc5EpgSucTNWQ3cg3MzOW6gXPq93awn+yJba9069O51vwDw4k674enBJJU9Se1FGDsDU4EXAa1Ac5xqRUSyYZ1LlgE/An40+HAqOQR4OcbgX7E9gG2iFlltmgmrGzZ34WPARcBFg+/RlUMxPxQ4FHgZMJkG+PM56pqw9VnPoj8Dfwa+5mC0T3kJnhyBcQjOAWAHRXpSvhrjIVLuJ+EBPLmTXO+91snaCLWINCzrfuZx4PHN/Ts+bfL2JJUczeMnkvPaWsa9/fjsTu3caukbseZsn6RvNz7utRpr1v6K5ubDMs3I5ZZkOn4suXF3kPbvmWnGQGV1puM3sHUPp25Z9+tfvKOwLf25fM39zBuuyprFmYzbb++j2T6WydjPSZtG7Yldz3uP7n7+73sHYxho3YGEbTMtoGKZXQmkpwJbwadPzTOmf1fcdwXbbfCvyS6YvwjYERiLMQFnPDBuM0NVMJbjrAVWAkvBngJ/HLMnSdMnseRJGHic3OJnBmftZEu8WPgHsHumIbnkxdYZ6nREEREREWlko34mbGvY1QvKQJnBfSVb5B2FbXl2bTPbjNsB7J88u2qAa5cttdF8KpGIiIiIiABqwjJhnaV/Dv7dssZcWiIiIiIiIsPWGOt8RURERERE6oSaMBERERERkYDUhImIiIiIiASkJkxERERERCQgNWEiIiIiIiIBqQkTEREREREJSE2YiIiIiIhIQGrCREREREREAlITJiIiIiIiEpCaMBERERERkYDUhImIiIiIiASkJkxERERERCQgNWEiIiIiIiIBqQkTEREREREJSE2YiIiIiIhIQGrCREREREREAlITJiIiIiIiEpCaMBERERERkYDUhImIiIiIiASkJkxERERERCQgNWEiIiIiIiIBqQkTEREREREJSE2YiIiIiIhIQGrCREREREREAlITJiIiIiIiEpCaMBERERERkYDUhImIiIiIiASkJkxERERERCQgNWEiIiIiIiIBqQkTEREREREJSE2YiIiIiIhIQGrCREREREREAlITJiIiIiIiEpCaMBERERERkYDUhImIiIiIiATUFLsAkSp4AkgzTaj092c6voiIiIiIiIiIiIiIiIiIiIiIiIiIiIiIiIiIiIiIiIiIiIiIiIiIiIiIiIiIiIiIiIiIiIiIiIiIiIiIiIiIiIiIiIiIiIiIiIiIiIiIiIiIiIiIiIiIiIiIiIiIiIiIiIiI1Kn/D/4RfFvjE7YLAAAAAElFTkSuQmCC;imageBackground=#ffffff;" parent="CIlAjLKx_zQ3_18mQWrC-11" vertex="1">
          <mxGeometry x="230" y="31" width="251.47" height="59" as="geometry" />
        </mxCell>
      </root>
    </mxGraphModel>
  </diagram>
  <diagram id="WI1qoECa9Y9R4Opb1uH8" name="Page-4">
    <mxGraphModel dx="1422" dy="832" grid="1" gridSize="10" guides="1" tooltips="1" connect="1" arrows="1" fold="1" page="1" pageScale="1" pageWidth="827" pageHeight="1169" math="0" shadow="0">
      <root>
        <mxCell id="jMXSenY-9r7tCc_rm8bD-0" />
        <mxCell id="jMXSenY-9r7tCc_rm8bD-1" parent="jMXSenY-9r7tCc_rm8bD-0" />
        <mxCell id="jMXSenY-9r7tCc_rm8bD-5" value="" style="rounded=1;whiteSpace=wrap;html=1;" parent="jMXSenY-9r7tCc_rm8bD-1" vertex="1">
          <mxGeometry x="110" y="190" width="400" height="400" as="geometry" />
        </mxCell>
        <mxCell id="jMXSenY-9r7tCc_rm8bD-4" value="" style="edgeStyle=orthogonalEdgeStyle;rounded=0;orthogonalLoop=1;jettySize=auto;html=1;" parent="jMXSenY-9r7tCc_rm8bD-1" source="jMXSenY-9r7tCc_rm8bD-2" target="jMXSenY-9r7tCc_rm8bD-3" edge="1">
          <mxGeometry relative="1" as="geometry" />
        </mxCell>
        <mxCell id="jMXSenY-9r7tCc_rm8bD-2" value="调度控制器" style="rounded=1;whiteSpace=wrap;html=1;" parent="jMXSenY-9r7tCc_rm8bD-1" vertex="1">
          <mxGeometry x="160" y="230" width="120" height="60" as="geometry" />
        </mxCell>
        <mxCell id="jMXSenY-9r7tCc_rm8bD-3" value="RSP CRD" style="shape=note;whiteSpace=wrap;html=1;backgroundOutline=1;darkOpacity=0.05;" parent="jMXSenY-9r7tCc_rm8bD-1" vertex="1">
          <mxGeometry x="180" y="330" width="80" height="80" as="geometry" />
        </mxCell>
        <mxCell id="jMXSenY-9r7tCc_rm8bD-6" value="Actor" style="shape=umlActor;verticalLabelPosition=bottom;verticalAlign=top;html=1;outlineConnect=0;" parent="jMXSenY-9r7tCc_rm8bD-1" vertex="1">
          <mxGeometry y="340" width="30" height="60" as="geometry" />
        </mxCell>
        <mxCell id="jMXSenY-9r7tCc_rm8bD-7" value="" style="endArrow=classic;html=1;entryX=0;entryY=0.5;entryDx=0;entryDy=0;entryPerimeter=0;" parent="jMXSenY-9r7tCc_rm8bD-1" target="jMXSenY-9r7tCc_rm8bD-3" edge="1">
          <mxGeometry width="50" height="50" relative="1" as="geometry">
            <mxPoint x="40" y="370" as="sourcePoint" />
            <mxPoint x="100" y="360" as="targetPoint" />
          </mxGeometry>
        </mxCell>
        <mxCell id="jMXSenY-9r7tCc_rm8bD-8" value="Cluster 1" style="rounded=1;whiteSpace=wrap;html=1;" parent="jMXSenY-9r7tCc_rm8bD-1" vertex="1">
          <mxGeometry x="610" y="190" width="210" height="110" as="geometry" />
        </mxCell>
        <mxCell id="jMXSenY-9r7tCc_rm8bD-9" value="&lt;font style=&quot;font-size: 14px&quot;&gt;Global&lt;/font&gt;" style="text;html=1;resizable=0;autosize=1;align=center;verticalAlign=middle;points=[];fillColor=none;strokeColor=none;rounded=0;" parent="jMXSenY-9r7tCc_rm8bD-1" vertex="1">
          <mxGeometry x="425" y="560" width="60" height="20" as="geometry" />
        </mxCell>
        <mxCell id="jMXSenY-9r7tCc_rm8bD-10" value="Cluster N" style="rounded=1;whiteSpace=wrap;html=1;" parent="jMXSenY-9r7tCc_rm8bD-1" vertex="1">
          <mxGeometry x="610" y="475" width="210" height="110" as="geometry" />
        </mxCell>
        <mxCell id="jMXSenY-9r7tCc_rm8bD-11" value="&lt;b&gt;&lt;font style=&quot;font-size: 16px&quot;&gt;....&lt;/font&gt;&lt;/b&gt;" style="text;html=1;resizable=0;autosize=1;align=center;verticalAlign=middle;points=[];fillColor=none;strokeColor=none;rounded=0;" parent="jMXSenY-9r7tCc_rm8bD-1" vertex="1">
          <mxGeometry x="690" y="390" width="30" height="20" as="geometry" />
        </mxCell>
        <mxCell id="jMXSenY-9r7tCc_rm8bD-12" value="" style="endArrow=classic;html=1;exitX=1;exitY=0.5;exitDx=0;exitDy=0;entryX=-0.01;entryY=0.627;entryDx=0;entryDy=0;entryPerimeter=0;" parent="jMXSenY-9r7tCc_rm8bD-1" source="jMXSenY-9r7tCc_rm8bD-2" target="jMXSenY-9r7tCc_rm8bD-8" edge="1">
          <mxGeometry width="50" height="50" relative="1" as="geometry">
            <mxPoint x="480" y="170" as="sourcePoint" />
            <mxPoint x="530" y="120" as="targetPoint" />
          </mxGeometry>
        </mxCell>
        <mxCell id="jMXSenY-9r7tCc_rm8bD-14" value="watch/list pod、node" style="edgeLabel;html=1;align=center;verticalAlign=middle;resizable=0;points=[];" parent="jMXSenY-9r7tCc_rm8bD-12" vertex="1" connectable="0">
          <mxGeometry x="0.4577" y="-2" relative="1" as="geometry">
            <mxPoint x="-139.01" y="-11.25" as="offset" />
          </mxGeometry>
        </mxCell>
        <mxCell id="jMXSenY-9r7tCc_rm8bD-13" value="" style="endArrow=classic;html=1;exitX=1;exitY=0.5;exitDx=0;exitDy=0;" parent="jMXSenY-9r7tCc_rm8bD-1" source="jMXSenY-9r7tCc_rm8bD-2" target="jMXSenY-9r7tCc_rm8bD-10" edge="1">
          <mxGeometry width="50" height="50" relative="1" as="geometry">
            <mxPoint x="290" y="270" as="sourcePoint" />
            <mxPoint x="617.9000000000001" y="268.97" as="targetPoint" />
          </mxGeometry>
        </mxCell>
        <mxCell id="jMXSenY-9r7tCc_rm8bD-15" value="watch/list pod、node" style="edgeLabel;html=1;align=center;verticalAlign=middle;resizable=0;points=[];" parent="jMXSenY-9r7tCc_rm8bD-13" vertex="1" connectable="0">
          <mxGeometry x="0.2874" relative="1" as="geometry">
            <mxPoint x="-122.61" y="-118.16999999999999" as="offset" />
          </mxGeometry>
        </mxCell>
        <mxCell id="jMXSenY-9r7tCc_rm8bD-16" value="&lt;br&gt;Federated&lt;br&gt;Resource" style="shape=note;whiteSpace=wrap;html=1;backgroundOutline=1;darkOpacity=0.05;" parent="jMXSenY-9r7tCc_rm8bD-1" vertex="1">
          <mxGeometry x="270" y="410" width="80" height="80" as="geometry" />
        </mxCell>
        <mxCell id="jMXSenY-9r7tCc_rm8bD-17" value="" style="endArrow=classic;html=1;exitX=1;exitY=1;exitDx=0;exitDy=0;entryX=0;entryY=0;entryDx=25;entryDy=0;entryPerimeter=0;" parent="jMXSenY-9r7tCc_rm8bD-1" source="jMXSenY-9r7tCc_rm8bD-2" target="jMXSenY-9r7tCc_rm8bD-16" edge="1">
          <mxGeometry width="50" height="50" relative="1" as="geometry">
            <mxPoint x="10" y="590" as="sourcePoint" />
            <mxPoint x="60" y="540" as="targetPoint" />
          </mxGeometry>
        </mxCell>
        <mxCell id="jMXSenY-9r7tCc_rm8bD-19" value="" style="edgeStyle=orthogonalEdgeStyle;rounded=0;orthogonalLoop=1;jettySize=auto;html=1;" parent="jMXSenY-9r7tCc_rm8bD-1" source="jMXSenY-9r7tCc_rm8bD-18" target="jMXSenY-9r7tCc_rm8bD-16" edge="1">
          <mxGeometry relative="1" as="geometry" />
        </mxCell>
        <mxCell id="jMXSenY-9r7tCc_rm8bD-18" value="联邦控制器" style="rounded=1;whiteSpace=wrap;html=1;" parent="jMXSenY-9r7tCc_rm8bD-1" vertex="1">
          <mxGeometry x="390" y="410" width="70" height="80" as="geometry" />
        </mxCell>
        <mxCell id="jMXSenY-9r7tCc_rm8bD-20" value="" style="endArrow=classic;html=1;entryX=0.5;entryY=1;entryDx=0;entryDy=0;exitX=1;exitY=0.363;exitDx=0;exitDy=0;exitPerimeter=0;" parent="jMXSenY-9r7tCc_rm8bD-1" source="jMXSenY-9r7tCc_rm8bD-18" target="jMXSenY-9r7tCc_rm8bD-8" edge="1">
          <mxGeometry width="50" height="50" relative="1" as="geometry">
            <mxPoint x="590" y="420" as="sourcePoint" />
            <mxPoint x="640" y="370" as="targetPoint" />
          </mxGeometry>
        </mxCell>
        <mxCell id="jMXSenY-9r7tCc_rm8bD-21" value="下发" style="edgeLabel;html=1;align=center;verticalAlign=middle;resizable=0;points=[];" parent="jMXSenY-9r7tCc_rm8bD-20" vertex="1" connectable="0">
          <mxGeometry x="-0.1425" y="3" relative="1" as="geometry">
            <mxPoint as="offset" />
          </mxGeometry>
        </mxCell>
        <mxCell id="jMXSenY-9r7tCc_rm8bD-22" value="" style="endArrow=classic;html=1;entryX=0;entryY=0.75;entryDx=0;entryDy=0;exitX=0.986;exitY=0.388;exitDx=0;exitDy=0;exitPerimeter=0;" parent="jMXSenY-9r7tCc_rm8bD-1" source="jMXSenY-9r7tCc_rm8bD-18" target="jMXSenY-9r7tCc_rm8bD-10" edge="1">
          <mxGeometry width="50" height="50" relative="1" as="geometry">
            <mxPoint x="470" y="449.03999999999996" as="sourcePoint" />
            <mxPoint x="725" y="310" as="targetPoint" />
          </mxGeometry>
        </mxCell>
        <mxCell id="jMXSenY-9r7tCc_rm8bD-23" value="下发" style="edgeLabel;html=1;align=center;verticalAlign=middle;resizable=0;points=[];" parent="jMXSenY-9r7tCc_rm8bD-22" vertex="1" connectable="0">
          <mxGeometry x="-0.1425" y="3" relative="1" as="geometry">
            <mxPoint as="offset" />
          </mxGeometry>
        </mxCell>
      </root>
    </mxGraphModel>
  </diagram>
  <diagram id="-CmBXMFNLhFhlfvJ0rHN" name="Page-5">
    <mxGraphModel dx="1422" dy="832" grid="1" gridSize="10" guides="1" tooltips="1" connect="1" arrows="1" fold="1" page="1" pageScale="1" pageWidth="827" pageHeight="1169" math="0" shadow="0">
      <root>
        <mxCell id="jYolNHSYNRHazSKlPsJI-0" />
        <mxCell id="jYolNHSYNRHazSKlPsJI-1" parent="jYolNHSYNRHazSKlPsJI-0" />
        <mxCell id="ECNinInKrkFPt2SeyeSe-1" value="" style="rounded=0;whiteSpace=wrap;html=1;" vertex="1" parent="jYolNHSYNRHazSKlPsJI-1">
          <mxGeometry x="70" y="200" width="230" height="300" as="geometry" />
        </mxCell>
        <mxCell id="ECNinInKrkFPt2SeyeSe-2" value="&lt;font style=&quot;font-size: 14px&quot;&gt;global&lt;/font&gt;" style="text;html=1;resizable=0;autosize=1;align=center;verticalAlign=middle;points=[];fillColor=none;strokeColor=none;rounded=0;" vertex="1" parent="jYolNHSYNRHazSKlPsJI-1">
          <mxGeometry x="80" y="210" width="50" height="20" as="geometry" />
        </mxCell>
        <mxCell id="ECNinInKrkFPt2SeyeSe-0" value="&lt;font style=&quot;font-size: 14px&quot;&gt;Istio Control Plane&lt;br&gt;（Pilot Citadel）&lt;/font&gt;" style="rounded=1;whiteSpace=wrap;html=1;" vertex="1" parent="jYolNHSYNRHazSKlPsJI-1">
          <mxGeometry x="160" y="240" width="120" height="60" as="geometry" />
        </mxCell>
        <mxCell id="-x7V1LNxylybXc4Crcmd-0" value="" style="rounded=0;whiteSpace=wrap;html=1;" vertex="1" parent="jYolNHSYNRHazSKlPsJI-1">
          <mxGeometry x="430" y="200" width="230" height="110" as="geometry" />
        </mxCell>
        <mxCell id="-x7V1LNxylybXc4Crcmd-1" value="&lt;font style=&quot;font-size: 14px&quot;&gt;cluster1&lt;/font&gt;" style="text;html=1;resizable=0;autosize=1;align=center;verticalAlign=middle;points=[];fillColor=none;strokeColor=none;rounded=0;" vertex="1" parent="jYolNHSYNRHazSKlPsJI-1">
          <mxGeometry x="435" y="210" width="60" height="20" as="geometry" />
        </mxCell>
        <mxCell id="-x7V1LNxylybXc4Crcmd-2" value="&lt;font style=&quot;font-size: 14px&quot;&gt;Istio Control Plane&lt;br&gt;（Pilot Citadel）&lt;/font&gt;" style="rounded=1;whiteSpace=wrap;html=1;" vertex="1" parent="jYolNHSYNRHazSKlPsJI-1">
          <mxGeometry x="530" y="210" width="120" height="60" as="geometry" />
        </mxCell>
      </root>
    </mxGraphModel>
  </diagram>
</mxfile>
